<svg version="1.1" xmlns="http://www.w3.org/2000/svg" xmlns:xlink="http://www.w3.org/1999/xlink" width="343.01559" height="450.10445" viewBox="0,0,343.01559,450.10445"><defs><linearGradient x1="294.70579" y1="302.30346" x2="294.70579" y2="341.99015" gradientUnits="userSpaceOnUse" id="color-1"><stop offset="0" stop-color="#ff6666" stop-opacity="0"/><stop offset="1" stop-color="#ff6666"/></linearGradient></defs><g transform="translate(-112.97547,-55.84675)"><g data-paper-data="{&quot;isPaintingLayer&quot;:true}" fill-rule="nonzero" stroke="none" stroke-width="0" stroke-linecap="butt" stroke-linejoin="miter" stroke-miterlimit="10" stroke-dasharray="" stroke-dashoffset="0" style="mix-blend-mode: normal"><path d="M366.8019,121.51103l-26.97999,-65.66427l40.61014,16.56593c-0.98462,13.58315 -3.11013,27.10261 -5.2107,40.6789z" fill="#ff9696"/><path d="M366.8019,121.51103l-26.97999,-65.66427l38.15146,38.88768c-0.85098,6.11486 -1.80404,12.23022 -2.75202,18.35715z" fill="#ff6666"/><path d="M130.09961,505.9512v-169.39492h306.97806v169.39492z" data-paper-data="{&quot;index&quot;:null}" fill="#ff6666"/><path d="M133.42054,341.99015v-39.68669h322.57052v39.68669z" data-paper-data="{&quot;index&quot;:null}" fill="url(#color-1)"/><path d="M130.32569,266.5379c-2.10057,-13.57629 -4.22607,-27.09575 -5.2107,-40.67889l40.61014,-16.56593l-26.97999,65.66427z" data-paper-data="{&quot;index&quot;:null}" fill="#ff9696"/><path d="M130.32569,266.5379c-0.94798,-6.12693 -1.90104,-12.24229 -2.75202,-18.35715l38.15146,-38.88767l-26.97999,65.66427z" data-paper-data="{&quot;index&quot;:null}" fill="#ff6666"/><path d="M118.18616,346.8626c-2.10057,-13.57628 -4.22607,-27.09575 -5.2107,-40.67889l40.61014,-16.56593l-26.97999,65.66427z" data-paper-data="{&quot;index&quot;:null}" fill="#ff9696"/><path d="M118.18616,346.8626c-0.94798,-6.12693 -1.90104,-12.24229 -2.75201,-18.35715l38.15146,-38.88767l-26.97999,65.66427z" data-paper-data="{&quot;index&quot;:null}" fill="#ff6666"/></g></g></svg>