<svg version="1.1" xmlns="http://www.w3.org/2000/svg" xmlns:xlink="http://www.w3.org/1999/xlink" width="309.94151" height="177.70297" viewBox="0,0,309.94151,177.70297"><g transform="translate(-138.46315,-22.31433)"><g data-paper-data="{&quot;isPaintingLayer&quot;:true}" fill-rule="nonzero" stroke="none" stroke-width="0" stroke-linecap="butt" stroke-linejoin="miter" stroke-miterlimit="10" stroke-dasharray="" stroke-dashoffset="0" style="mix-blend-mode: normal"><path d="M255.45695,145.11477l65.50939,27.54861l-65.50939,27.35392z" data-paper-data="{&quot;index&quot;:null}" fill="#ff9696"/><path d="M255.45695,173.28941l65.50939,-0.62603l-65.50939,27.35392z" data-paper-data="{&quot;index&quot;:null}" fill="#ff6666"/><path d="M448.40467,138.30772l-65.50939,-27.35392l65.50939,-27.54861z" fill="#ff9696"/><path d="M448.40467,138.30772l-65.50939,-27.35392l65.50939,0.62603z" fill="#ff6666"/><path d="" fill="#ff9696"/><path d="M272.4315,22.31433l9.3693,22.27979c-1.1672,0.19894 -2.33425,0.39872 -3.50123,0.59887c-3.33199,0.57148 -5.65951,2.05015 -9.82569,2.55601c-2.32483,0.28228 -4.65275,0.53514 -6.98291,0.7666z" fill="#ff9696"/><path d="" fill="#ff6666"/><path d="M272.4315,22.31433l-0.23562,24.65568c-1.10271,0.32282 -2.30618,0.60708 -3.722,0.77899c-2.32483,0.28228 -4.65275,0.53514 -6.98291,0.7666z" fill="#ff6666"/><path d="M164.66442,55.18718c-0.23146,2.33016 -0.48432,4.65808 -0.7666,6.98291c-0.50586,4.16618 -1.98453,6.4937 -2.55601,9.82569c-0.20015,1.16698 -0.39993,2.33403 -0.59887,3.50123l-22.27979,-9.3693z" data-paper-data="{&quot;index&quot;:null}" fill="#ff9696"/><path d="M164.66442,55.18718c-0.23146,2.33016 -0.48432,4.65808 -0.7666,6.98291c-0.17191,1.41582 -0.45617,2.61929 -0.77899,3.722l-24.65568,0.23562z" data-paper-data="{&quot;index&quot;:null}" fill="#ff6666"/></g></g></svg>