<svg version="1.1" xmlns="http://www.w3.org/2000/svg" xmlns:xlink="http://www.w3.org/1999/xlink" width="429.7562" height="525.09203" viewBox="0,0,429.7562,525.09203"><defs><linearGradient x1="237.76563" y1="282.88072" x2="237.76563" y2="322.56741" gradientUnits="userSpaceOnUse" id="color-1"><stop offset="0" stop-color="#ff6666" stop-opacity="0"/><stop offset="1" stop-color="#ff6666"/></linearGradient></defs><g transform="translate(-76.48037,38.56357)"><g data-paper-data="{&quot;isPaintingLayer&quot;:true}" fill-rule="nonzero" stroke="none" stroke-width="0" stroke-linecap="butt" stroke-linejoin="miter" stroke-miterlimit="10" stroke-dasharray="" stroke-dashoffset="0" style="mix-blend-mode: normal"><path d="M367.91185,269.64674l27.35392,-65.50939l27.54861,65.50939z" fill="#ff9696"/><path d="M367.91185,269.64674l27.35392,-65.50939l-0.62603,65.50939z" fill="#ff6666"/><path d="M95.39375,486.52846v-169.39492h306.97806v169.39492z" fill="#ff6666"/><path d="M76.48037,322.56741v-39.68669h322.57052v39.68669z" fill="url(#color-1)"/><path d="M337.79657,-18.0471l-27.54861,65.50939l-27.35392,-65.50939z" data-paper-data="{&quot;index&quot;:null}" fill="#ff9696"/><path d="M309.62193,-18.0471l0.62603,65.50939l-27.35392,-65.50939z" data-paper-data="{&quot;index&quot;:null}" fill="#ff6666"/><path d="M506.23657,25.86989l-27.54861,65.50939l-27.35392,-65.50939z" data-paper-data="{&quot;index&quot;:null}" fill="#ff9696"/><path d="M478.06193,25.86989l0.62603,65.50939l-27.35392,-65.50939z" data-paper-data="{&quot;index&quot;:null}" fill="#ff6666"/><path d="M440.15135,-19.52953l-27.54861,65.50939l-27.35392,-65.50939z" data-paper-data="{&quot;index&quot;:null}" fill="#ff9696"/><path d="M411.97671,-19.52953l0.62603,65.50939l-27.35392,-65.50939z" data-paper-data="{&quot;index&quot;:null}" fill="#ff6666"/><path d="M285.14459,-38.56357l-27.54861,65.50939l-27.35392,-65.50939z" data-paper-data="{&quot;index&quot;:null}" fill="#ff9696"/><path d="M256.96995,-38.56357l0.62603,65.50939l-27.35392,-65.50939z" data-paper-data="{&quot;index&quot;:null}" fill="#ff6666"/></g></g></svg>