<svg version="1.1" xmlns="http://www.w3.org/2000/svg" xmlns:xlink="http://www.w3.org/1999/xlink" width="296.22303" height="121.7754" viewBox="0,0,296.22303,121.7754"><g transform="translate(-93.9345,-110.11752)"><g data-paper-data="{&quot;isPaintingLayer&quot;:true}" fill-rule="nonzero" stroke="none" stroke-linecap="butt" stroke-linejoin="miter" stroke-miterlimit="10" stroke-dasharray="" stroke-dashoffset="0" style="mix-blend-mode: normal"><path d="M250.24685,216.63332c-5,0 -10,0 -15,0c0,-8.7437 0,-17.48741 0,-26.23112c1.23453,0.15285 2.46976,0.30244 3.70582,0.44794c3.74327,0.44063 7.5144,0.75536 11.29418,1.01821c0,8.255 0,16.50999 0,24.76497z" fill="#ffffff" stroke-width="0" opacity="0.979"/><path d="M288.67911,194.94357c2.741,7.2235 5.075,14.5568 7,22c-5.333,0 -10.667,0 -16,0c-2.035,-7.8025 -4.535,-15.4692 -7.5,-23c-0.5,7.6594 -0.666,15.3261 -0.5,23c-5.333,0 -10.667,0 -16,0c0,-8.14712 0,-16.29425 0,-24.44138c4.39058,0.26865 8.7814,0.51141 13.14245,0.84396c7.5077,0.29808 14.99757,0.38104 22.48048,0.33473c-0.76258,0.54408 -1.63693,0.96497 -2.62293,1.26268z" fill="#ffffff" stroke-width="0" opacity="0.938"/><path d="M340.24685,216.82453c-5.333,0 -10.667,0 -16,0c-0.204,-3.0176 -0.537,-6.0176 -1,-9c-3,0 -6,0 -9,0c-0.659,2.9552 -0.992,5.9552 -1,9c-5.333,0 -10.667,0 -16,0c1.34715,-7.80348 2.70745,-15.60446 4.08092,-23.40294c5.06167,-0.10026 10.1225,-0.24139 15.18581,-0.39678c-0.08889,0.93324 -0.1778,1.86648 -0.26673,2.79972c1.667,0 3.333,0 5,0c-0.08274,-0.98347 -0.17285,-1.96337 -0.27036,-2.93967c4.94554,-0.15766 9.89441,-0.32145 14.84976,-0.46659c1.46148,8.13773 2.93498,16.27315 4.42059,24.40626z" fill="#ffffff" stroke-width="0" opacity="0.942"/><path d="M359.2469,216.51424c-5.333,0 -10.667,0 -16,0c0,-8.19541 0,-16.39084 0,-24.58626c5.33082,-0.09756 10.66462,-0.12972 16,-0.12481c0,8.23703 0,16.47401 0,24.71107z" fill="#ffffff" stroke-width="0" opacity="0.941"/><text transform="translate(95.03355,204.41652) scale(2.19811,2.19811)" font-size="40" xml:space="preserve" fill="#000000" fill-rule="nonzero" stroke="none" stroke-width="1" stroke-linecap="butt" stroke-linejoin="miter" stroke-miterlimit="10" stroke-dasharray="" stroke-dashoffset="0" font-family="Sans Serif" font-weight="normal" text-anchor="start" style="mix-blend-mode: normal"><tspan x="0" dy="0">monke</tspan></text></g></g></svg>