<svg version="1.1" xmlns="http://www.w3.org/2000/svg" xmlns:xlink="http://www.w3.org/1999/xlink" width="388.09799" height="479.38744" viewBox="0,0,388.09799,479.38744"><defs><linearGradient x1="239.26814" y1="304.19492" x2="239.26814" y2="343.88161" gradientUnits="userSpaceOnUse" id="color-1"><stop offset="0" stop-color="#ff6666" stop-opacity="0"/><stop offset="1" stop-color="#ff6666"/></linearGradient></defs><g transform="translate(-68.55863,-28.45522)"><g data-paper-data="{&quot;isPaintingLayer&quot;:true}" fill-rule="nonzero" stroke="none" stroke-width="0" stroke-linecap="butt" stroke-linejoin="miter" stroke-miterlimit="10" stroke-dasharray="" stroke-dashoffset="0" style="mix-blend-mode: normal"><path d="M68.55863,67.57333l65.80194,26.84232l-4.59256,4.59256c-16.86092,-4.07228 -34.2069,-7.92454 -51.42382,-9.63137c-0.28466,-0.02822 -0.56954,-0.05038 -0.85461,-0.06724z" fill="#ff9696"/><path d="M68.55863,67.57333l23.06532,23.51041c-4.42816,-0.68872 -8.85822,-1.26856 -13.27976,-1.70689c-0.28466,-0.02822 -0.56954,-0.05038 -0.85461,-0.06724z" fill="#ff6666"/><path d="M74.66196,507.84266v-169.39492h306.97806v169.39492z" data-paper-data="{&quot;index&quot;:null}" fill="#ff6666"/><path d="M77.98289,343.88161v-39.68669h322.57052v39.68669z" data-paper-data="{&quot;index&quot;:null}" fill="url(#color-1)"/><path d="M401.75409,316.70103l27.35392,-65.50939l27.54861,65.50939z" fill="#ff9696"/><path d="M401.75409,316.70103l27.35392,-65.50939l-0.62603,65.50939z" fill="#ff6666"/><g data-paper-data="{&quot;index&quot;:null}"><path d="M282.93093,83.35775l-65.50939,-27.35392l65.50939,-27.54861z" fill="#ff9696"/><path d="M282.93093,83.35775l-65.50939,-27.35392l65.50939,0.62603z" fill="#ff6666"/></g></g></g></svg>