<svg version="1.1" xmlns="http://www.w3.org/2000/svg" xmlns:xlink="http://www.w3.org/1999/xlink" width="573.94178" height="393.58338" viewBox="0,0,573.94178,393.58338"><g transform="translate(39.97129,23.13607)"><g data-paper-data="{&quot;isPaintingLayer&quot;:true}" fill-rule="nonzero" stroke="none" stroke-width="0" stroke-linecap="butt" stroke-linejoin="miter" stroke-miterlimit="10" stroke-dasharray="" stroke-dashoffset="0" style="mix-blend-mode: normal"><path d="M58.91397,309.45252l64.54134,-154.56885l65.00072,154.56885z" fill="#ff9696"/><path d="M58.91397,309.45252l64.54134,-154.56885l-1.47711,154.56885z" fill="#ff6666"/><path d="M245.95795,309.45252l64.54134,-154.56885l65.00072,154.56885z" fill="#ff9696"/><path d="M245.95795,309.45252l64.54134,-154.56885l-1.47711,154.56885z" fill="#ff6666"/><path d="M461.78281,28.18351l-65.00072,154.56885l-64.54134,-154.56885z" data-paper-data="{&quot;index&quot;:null}" fill="#ff9696"/><path d="M395.30498,28.18351l1.47711,154.56885l-64.54134,-154.56885z" data-paper-data="{&quot;index&quot;:null}" fill="#ff6666"/><path d="M288.14316,15.13278l-65.00072,154.56885l-64.54134,-154.56885z" data-paper-data="{&quot;index&quot;:null}" fill="#ff9696"/><path d="M221.66533,15.13278l1.47711,154.56885l-64.54134,-154.56885z" data-paper-data="{&quot;index&quot;:null}" fill="#ff6666"/><path d="M89.57077,-23.13607l-65.00072,154.56885l-64.54134,-154.56885z" data-paper-data="{&quot;index&quot;:null}" fill="#ff9696"/><path d="M23.09294,-23.13607l1.47711,154.56885l-64.54134,-154.56885z" data-paper-data="{&quot;index&quot;:null}" fill="#ff6666"/><path d="M404.42843,370.4473l64.54134,-154.56885l65.00072,154.56885z" data-paper-data="{&quot;index&quot;:null}" fill="#ff9696"/><path d="M404.42843,370.4473l64.54134,-154.56885l-1.47711,154.56885z" data-paper-data="{&quot;index&quot;:null}" fill="#ff6666"/></g></g></svg>