<svg version="1.1" xmlns="http://www.w3.org/2000/svg" xmlns:xlink="http://www.w3.org/1999/xlink" width="356.24982" height="335.0987" viewBox="0,0,356.24982,335.0987"><g transform="translate(-127.49438,-84.2533)"><g data-paper-data="{&quot;isPaintingLayer&quot;:true}" fill-rule="nonzero" stroke="none" stroke-width="0" stroke-linecap="butt" stroke-linejoin="miter" stroke-miterlimit="10" stroke-dasharray="" stroke-dashoffset="0" style="mix-blend-mode: normal"><path d="M191.36575,398.87851l27.35392,-65.50939l27.54861,65.50939z" fill="#ff9696"/><path d="M191.36575,398.87851l27.35392,-65.50939l-0.62603,65.50939z" fill="#ff6666"/><path d="M237.22577,371.07699l27.35392,-65.50939l27.54861,65.50939z" fill="#ff9696"/><path d="M237.22577,371.07699l27.35392,-65.50939l-0.62603,65.50939z" fill="#ff6666"/><path d="M127.49439,383.66776l27.35392,-65.50939l27.54861,65.50939z" fill="#ff9696"/><path d="M127.49439,383.66776l27.35392,-65.50939l-0.62603,65.50939z" fill="#ff6666"/><path d="M295.93449,408.68232l27.35392,-65.50939l27.54861,65.50939z" fill="#ff9696"/><path d="M295.93449,408.68232l27.35392,-65.50939l-0.62603,65.50939z" fill="#ff6666"/><path d="M352.42924,375.01475l27.35392,-65.50939l27.54861,65.50939z" fill="#ff9696"/><path d="M352.42924,375.01475l27.35392,-65.50939l-0.62603,65.50939z" fill="#ff6666"/><path d="M410.04341,419.35201l27.35392,-65.50939l27.54861,65.50939z" fill="#ff9696"/><path d="M410.04341,419.35201l27.35392,-65.50939l-0.62603,65.50939z" fill="#ff6666"/><path d="M428.84168,414.00331l27.35392,-65.50939l27.54861,65.50939z" fill="#ff9696"/><path d="M428.84168,414.00331l27.35392,-65.50939l-0.62603,65.50939z" fill="#ff6666"/><path d="M479.94594,84.2533l-27.54861,65.50939l-27.35392,-65.50939z" data-paper-data="{&quot;index&quot;:null}" fill="#ff9696"/><path d="M451.7713,84.2533l0.62603,65.50939l-27.35392,-65.50939z" data-paper-data="{&quot;index&quot;:null}" fill="#ff6666"/></g></g></svg>