<svg version="1.1" xmlns="http://www.w3.org/2000/svg" xmlns:xlink="http://www.w3.org/1999/xlink" width="61.10442" height="61.39922" viewBox="0,0,61.10442,61.39922"><defs><linearGradient x1="231.41936" y1="167.42643" x2="231.41936" y2="192.57357" gradientUnits="userSpaceOnUse" id="color-1"><stop offset="0" stop-color="#000000"/><stop offset="1" stop-color="#5b5b5b"/></linearGradient></defs><g transform="translate(-209.44779,-149.30039)"><g data-paper-data="{&quot;isPaintingLayer&quot;:true}" fill-rule="nonzero" stroke="none" stroke-width="0" stroke-linecap="butt" stroke-linejoin="miter" stroke-miterlimit="10" stroke-dasharray="" stroke-dashoffset="0" style="mix-blend-mode: normal"><path d="M240.18358,164.48642c0,-8.38607 6.79825,-15.18431 15.18431,-15.18431c8.38607,0 15.18432,6.79825 15.18432,15.18431c0,8.38607 -6.79825,15.18433 -15.18432,15.18433c-8.38607,0 -15.18431,-6.79826 -15.18431,-15.18433z" data-paper-data="{&quot;index&quot;:null}" fill="#353535"/><path d="M209.48101,164.63785c0,-8.38607 6.79825,-15.18431 15.18431,-15.18431c8.38607,0 15.18432,6.79825 15.18432,15.18431c0,8.38607 -6.79826,15.18432 -15.18432,15.18432c-8.38607,0 -15.18431,-6.79825 -15.18431,-15.18432z" data-paper-data="{&quot;index&quot;:null}" fill="#f0d481"/><path d="M209.44779,195.51529c0,-8.38607 6.79825,-15.18432 15.18431,-15.18432c8.38607,0 15.18432,6.79825 15.18432,15.18432c0,8.38607 -6.79825,15.18432 -15.18432,15.18432c-8.38607,0 -15.18431,-6.79826 -15.18431,-15.18432z" data-paper-data="{&quot;index&quot;:null}" fill="#353535"/><path d="M240.15036,195.35293c0,-8.38607 6.79825,-15.18431 15.18431,-15.18431c8.38607,0 15.18432,6.79825 15.18432,15.18431c0,8.38607 -6.79825,15.18432 -15.18432,15.18432c-8.38607,0 -15.18431,-6.79826 -15.18431,-15.18432z" data-paper-data="{&quot;index&quot;:null}" fill="#f0d481"/><path d="M223.83105,210.48169v-61.09182h33.018v61.09183z" data-paper-data="{&quot;index&quot;:null}" fill="#353535"/><path d="M209.53668,196.64828v-31.39579h60.90209v31.39579z" data-paper-data="{&quot;index&quot;:null}" fill="#353535"/><path d="M240.13537,195.49073c0,-4.20793 -0.0233,-15.26617 -0.0233,-15.26617c0,0 11.02947,0.08186 15.20761,0.08186c4.58387,0 15.12025,0.16819 15.12025,0.16819c0,0 0.06407,11.21393 0.06407,15.01612c0,8.38607 -6.79825,15.18432 -15.18432,15.18432c-4.47128,0 -15.17926,-0.15433 -15.17926,-0.15433c0,0 -0.00505,-11.11521 -0.00505,-15.02999z" data-paper-data="{&quot;index&quot;:null}" fill="#353535"/><path d="M239.86216,164.48471c0,4.02192 -0.11626,15.562 -0.11626,15.562c0,0 -10.70391,-0.37769 -15.06805,-0.37769c-4.58388,0 -15.12025,-0.16819 -15.12025,-0.16819c0,0 -0.06407,-11.21393 -0.06407,-15.01612c0,-8.38607 6.79825,-15.18432 15.18432,-15.18432c4.47128,0 15.17926,0.15433 15.17926,0.15433c0,0 0.00505,11.11521 0.00505,15.02999z" data-paper-data="{&quot;index&quot;:null}" fill="#353535"/><path d="M240.00003,203.21076c-12.81896,0 -23.21077,-10.39183 -23.21077,-23.21077c0,-12.81895 10.39183,-23.21077 23.21077,-23.21077c12.81895,0 23.21077,10.39183 23.21077,23.21077c0,12.81895 -10.39183,23.21077 -23.21077,23.21077z" data-paper-data="{&quot;index&quot;:null}" fill="#ffffff"/><path d="M231.41936,192.57357c-6.9442,0 -12.57357,-5.62936 -12.57357,-12.57357c0,-6.9442 5.62936,-12.57357 12.57357,-12.57357c6.9442,0 12.57357,5.62936 12.57357,12.57357c0,6.9442 -5.62936,12.57357 -12.57357,12.57357z" data-paper-data="{&quot;index&quot;:null}" fill="url(#color-1)"/><path d="M225.47812,181.04865c-2.14037,0 -3.87549,-1.73511 -3.87549,-3.87548c0,-2.14037 1.73512,-3.87549 3.87549,-3.87549c2.14036,0 3.87548,1.73512 3.87548,3.87549c0,2.14036 -1.73511,3.87548 -3.87548,3.87548z" data-paper-data="{&quot;index&quot;:null}" fill="#ffffff"/></g></g></svg>