<svg version="1.1" xmlns="http://www.w3.org/2000/svg" xmlns:xlink="http://www.w3.org/1999/xlink" width="466.27735" height="437.13782" viewBox="0,0,466.27735,437.13782"><defs><linearGradient x1="369.7251" y1="323.53489" x2="369.7251" y2="363.22158" gradientUnits="userSpaceOnUse" id="color-1"><stop offset="0" stop-color="#ff6666" stop-opacity="0"/><stop offset="1" stop-color="#ff6666"/></linearGradient></defs><g transform="translate(-64.73301,-90.04481)"><g data-paper-data="{&quot;isPaintingLayer&quot;:true}" fill-rule="nonzero" stroke="none" stroke-width="0" stroke-linecap="butt" stroke-linejoin="miter" stroke-miterlimit="10" stroke-dasharray="" stroke-dashoffset="0" style="mix-blend-mode: normal"><path d="M205.11892,527.18263v-169.39492h306.97806v169.39492z" data-paper-data="{&quot;index&quot;:null}" fill="#ff6666"/><path d="M208.43984,363.22158v-39.68669h322.57052v39.68669z" data-paper-data="{&quot;index&quot;:null}" fill="url(#color-1)"/><path d="M337.79657,187.65685l-27.54861,65.50939l-27.35392,-65.50939z" data-paper-data="{&quot;index&quot;:null}" fill="#ff9696"/><path d="M309.62193,187.65685l0.62603,65.50939l-27.35392,-65.50939z" data-paper-data="{&quot;index&quot;:null}" fill="#ff6666"/><path d="M64.73301,185.51534l27.35392,-65.50939l27.54861,65.50939z" data-paper-data="{&quot;index&quot;:null}" fill="#ff9696"/><path d="M64.73301,185.51534l27.35392,-65.50939l-0.62603,65.50939z" data-paper-data="{&quot;index&quot;:null}" fill="#ff6666"/><path d="M446.40818,155.5542l27.35392,-65.50939l27.54861,65.50939z" data-paper-data="{&quot;index&quot;:null}" fill="#ff9696"/><path d="M446.40818,155.5542l27.35392,-65.50939l-0.62603,65.50939z" data-paper-data="{&quot;index&quot;:null}" fill="#ff6666"/><path d="M148.42715,174.16534l65.50939,27.35392l-37.0186,15.5674c-0.42177,-1.4074 -0.91223,-2.82736 -1.4824,-4.26434c-1.50285,-3.7876 -5.26175,-6.26916 -8.34596,-8.93227c-1.98317,-1.71239 -11.67629,-8.16179 -18.66243,-12.75752z" data-paper-data="{&quot;index&quot;:null}" fill="#ff9696"/><path d="" data-paper-data="{&quot;index&quot;:null}" fill="#ff9696"/><path d="M148.42715,174.16534l65.50939,27.35392l-50.73847,-0.48487c-3.97827,-2.76812 -10.00461,-6.7664 -14.77092,-9.90185z" data-paper-data="{&quot;index&quot;:null}" fill="#ff6666"/><path d="M492.81757,189.56138l-27.54861,65.50939l-27.35392,-65.50939z" data-paper-data="{&quot;index&quot;:null}" fill="#ff9696"/><path d="M464.64293,189.56138l0.62603,65.50939l-27.35392,-65.50939z" data-paper-data="{&quot;index&quot;:null}" fill="#ff6666"/></g></g></svg>