<svg version="1.1" xmlns="http://www.w3.org/2000/svg" xmlns:xlink="http://www.w3.org/1999/xlink" width="573.25463" height="682.75691" viewBox="0,0,573.25463,682.75691"><g transform="translate(10.01647,2.10479)"><g data-paper-data="{&quot;isPaintingLayer&quot;:true}" stroke-linejoin="miter" stroke-miterlimit="10" stroke-dasharray="" stroke-dashoffset="0" style="mix-blend-mode: normal"><path d="M317.93674,54.19609c5.667,0 11.333,0 17,0c-0.172,0.99162 0.162,1.65829 1,2c0,2.66667 0,5.33333 0,8c-0.859,12.1746 -1.692,24.508 -2.5,37c-4.413,1.1324 -8.913,1.2991 -13.5,0.5c-0.626,-0.7504 -1.126,-1.5838 -1.5,-2.5c-0.949,-15.0704 -1.116,-30.0704 -0.5,-45z" fill="#61b40e" fill-rule="evenodd" stroke="#ffffff" stroke-width="2.5" stroke-linecap="butt" opacity="0.923"/><path d="M317.93674,54.19609c5.667,0 11.333,0 17,0c-0.172,0.99162 0.162,1.65829 1,2c0,2.66667 0,5.33333 0,8c-0.859,12.1746 -1.692,24.508 -2.5,37c-4.413,1.1324 -8.913,1.2991 -13.5,0.5c-0.626,-0.7504 -1.126,-1.5838 -1.5,-2.5c-0.949,-15.0704 -1.116,-30.0704 -0.5,-45z" fill="#61b40e" fill-rule="evenodd" stroke="#ffffff" stroke-width="2.5" stroke-linecap="butt" opacity="0.923"/><path d="M317.93674,54.19609c5.667,0 11.333,0 17,0c-0.172,0.99162 0.162,1.65829 1,2c0,2.66667 0,5.33333 0,8c-0.859,12.1746 -1.692,24.508 -2.5,37c-4.413,1.1324 -8.913,1.2991 -13.5,0.5c-0.626,-0.7504 -1.126,-1.5838 -1.5,-2.5c-0.949,-15.0704 -1.116,-30.0704 -0.5,-45z" fill="#61b40e" fill-rule="evenodd" stroke="#ffffff" stroke-width="2.5" stroke-linecap="butt" opacity="0.923"/><path d="M335.93674,108.19609c0,4.6667 0,9.3333 0,14c-1,0.3333 -1.667,1 -2,2c-5,0 -10,0 -15,0c-2.454,-2.1839 -3.454,-5.0172 -3,-8.5c-0.417,-3.5206 0.583,-6.5206 3,-9c5,-0.6667 10,-0.6667 15,0c0.544,0.7172 1.211,1.2172 2,1.5z" fill="#c48700" fill-rule="evenodd" stroke="#ffffff" stroke-width="2.5" stroke-linecap="butt" opacity="0.917"/><path d="M333.43674,101.19609c-4.413,1.1324 -8.913,1.2991 -13.5,0.5c-0.626,-0.7504 -1.126,-1.5838 -1.5,-2.5c-0.3768,-5.98372 -0.63032,-11.95635 -0.76049,-17.91788c5.77909,-0.48067 11.51429,-1.28982 17.23059,-2.22729c-0.49903,7.32547 -0.98899,14.70721 -1.4701,22.14517z" fill="#c48700" fill-rule="nonzero" stroke="#ffffff" stroke-width="2.5" stroke-linecap="butt" opacity="0.923"/><path d="M335.93674,108.19609c0,4.6667 0,9.3333 0,14c-1,0.3333 -1.667,1 -2,2c-5,0 -10,0 -15,0c-2.454,-2.1839 -3.454,-5.0172 -3,-8.5c-0.417,-3.5206 0.583,-6.5206 3,-9c5,-0.6667 10,-0.6667 15,0c0.544,0.7172 1.211,1.2172 2,1.5z" fill="#c48700" fill-rule="evenodd" stroke="#ffffff" stroke-width="2.5" stroke-linecap="butt" opacity="0.917"/><path d="M333.43674,101.19609c-4.413,1.1324 -8.913,1.2991 -13.5,0.5c-0.626,-0.7504 -1.126,-1.5838 -1.5,-2.5c-0.3768,-5.98372 -0.63032,-11.95635 -0.76049,-17.91788c5.77909,-0.48067 11.51429,-1.28982 17.23059,-2.22729c-0.49903,7.32547 -0.98899,14.70721 -1.4701,22.14517z" fill="#c48700" fill-rule="nonzero" stroke="#ffffff" stroke-width="2.5" stroke-linecap="butt" opacity="0.923"/><path d="M335.93674,108.19609c0,4.6667 0,9.3333 0,14c-1,0.3333 -1.667,1 -2,2c-5,0 -10,0 -15,0c-2.454,-2.1839 -3.454,-5.0172 -3,-8.5c-0.417,-3.5206 0.583,-6.5206 3,-9c5,-0.6667 10,-0.6667 15,0c0.544,0.7172 1.211,1.2172 2,1.5z" fill="#c48700" fill-rule="evenodd" stroke="#ffffff" stroke-width="2.5" stroke-linecap="butt" opacity="0.917"/><path d="M333.43674,101.19609c-4.413,1.1324 -8.913,1.2991 -13.5,0.5c-0.626,-0.7504 -1.126,-1.5838 -1.5,-2.5c-0.3768,-5.98372 -0.63032,-11.95635 -0.76049,-17.91788c5.77909,-0.48067 11.51429,-1.28982 17.23059,-2.22729c-0.49903,7.32547 -0.98899,14.70721 -1.4701,22.14517z" fill="#c48700" fill-rule="nonzero" stroke="#ffffff" stroke-width="2.5" stroke-linecap="butt" opacity="0.923"/><path d="M335.93674,108.19609c0,4.6667 0,9.3333 0,14c-1,0.3333 -1.667,1 -2,2c-5,0 -10,0 -15,0c-2.454,-2.1839 -3.454,-5.0172 -3,-8.5c-0.417,-3.5206 0.583,-6.5206 3,-9c5,-0.6667 10,-0.6667 15,0c0.544,0.7172 1.211,1.2172 2,1.5z" fill="#c48700" fill-rule="evenodd" stroke="#ffffff" stroke-width="2.5" stroke-linecap="butt" opacity="0.917"/><path d="M317.93674,54.19609c5.667,0 11.333,0 17,0c-0.172,0.99162 0.162,1.65829 1,2c0,2.66667 0,5.33333 0,8c-0.12622,1.78896 -0.25188,3.58136 -0.37699,5.37718c-5.9767,-0.75982 -11.96779,-1.51259 -17.96306,-2.21493c0.04593,-4.39348 0.15928,-8.7809 0.34005,-13.16225z" fill="#7be312" fill-rule="evenodd" stroke="#ffffff" stroke-width="2.5" stroke-linecap="butt" opacity="0.923"/><path d="M317.93674,54.19609c5.667,0 11.333,0 17,0c-0.172,0.99162 0.162,1.65829 1,2c0,2.66667 0,5.33333 0,8c-0.12622,1.78896 -0.25188,3.58136 -0.37699,5.37718c-5.9767,-0.75982 -11.96779,-1.51259 -17.96306,-2.21493c0.04593,-4.39348 0.15928,-8.7809 0.34005,-13.16225z" fill="#7be312" fill-rule="evenodd" stroke="#ffffff" stroke-width="2.5" stroke-linecap="butt" opacity="0.923"/><path d="M317.93674,54.19609c5.667,0 11.333,0 17,0c-0.172,0.99162 0.162,1.65829 1,2c0,2.66667 0,5.33333 0,8c-0.12622,1.78896 -0.25188,3.58136 -0.37699,5.37718c-5.9767,-0.75982 -11.96779,-1.51259 -17.96306,-2.21493c0.04593,-4.39348 0.15928,-8.7809 0.34005,-13.16225z" fill="#7be312" fill-rule="evenodd" stroke="#ffffff" stroke-width="2.5" stroke-linecap="butt" opacity="0.923"/><path d="M-2.38153,680.65212v-407.50196h490.07526v407.50196z" fill="#c48700" fill-rule="nonzero" stroke="none" stroke-width="0" stroke-linecap="butt"/><path d="M-10.01647,315.52317v-31.37831h491.16617v31.37831z" fill="#996900" fill-rule="nonzero" stroke="none" stroke-width="0" stroke-linecap="butt"/><path d="M-5.09257,300.36985v-22.64599h490.22962v22.64599z" fill="#539a0c" fill-rule="nonzero" stroke="none" stroke-width="0" stroke-linecap="butt"/><path d="M-5.94278,285.82534v-22.64599h490.22962v22.64599z" fill="#61b40e" fill-rule="nonzero" stroke="none" stroke-width="0" stroke-linecap="butt"/><path d="M-4.2857,270.87816v-15.36693h490.22962v15.36693z" fill="#7ae212" fill-rule="nonzero" stroke="none" stroke-width="0" stroke-linecap="butt"/><text transform="translate(107.61732,274.17591) scale(1.00984,-1.00984)" font-size="40" xml:space="preserve" data-paper-data="{&quot;index&quot;:null}" fill="#61b40e" fill-rule="nonzero" stroke="none" stroke-width="1" stroke-linecap="butt" stroke-linejoin="miter" stroke-miterlimit="10" stroke-dasharray="" stroke-dashoffset="0" font-family="Sans Serif" font-weight="normal" text-anchor="start" style="mix-blend-mode: normal"><tspan x="0" dy="0">▲</tspan></text><text transform="translate(250.38172,273.51615) scale(0.77804,-0.77803)" font-size="40" xml:space="preserve" data-paper-data="{&quot;index&quot;:null}" fill="#61b40e" fill-rule="nonzero" stroke="none" stroke-width="1" stroke-linecap="butt" stroke-linejoin="miter" stroke-miterlimit="10" stroke-dasharray="" stroke-dashoffset="0" font-family="Sans Serif" font-weight="normal" text-anchor="start" style="mix-blend-mode: normal"><tspan x="0" dy="0">▲</tspan></text><text transform="translate(38.73654,283.1452) scale(0.95337,-0.95336)" font-size="40" xml:space="preserve" data-paper-data="{&quot;index&quot;:null}" fill="#61b40e" fill-rule="nonzero" stroke="none" stroke-width="1" stroke-linecap="butt" stroke-linejoin="miter" stroke-miterlimit="10" stroke-dasharray="" stroke-dashoffset="0" font-family="Sans Serif" font-weight="normal" text-anchor="start" style="mix-blend-mode: normal"><tspan x="0" dy="0">▲</tspan></text><text transform="translate(346.30687,272.85472) scale(0.70539,-0.70539)" font-size="40" xml:space="preserve" data-paper-data="{&quot;index&quot;:null}" fill="#61b40e" fill-rule="nonzero" stroke="none" stroke-width="1" stroke-linecap="butt" stroke-linejoin="miter" stroke-miterlimit="10" stroke-dasharray="" stroke-dashoffset="0" font-family="Sans Serif" font-weight="normal" text-anchor="start" style="mix-blend-mode: normal"><tspan x="0" dy="0">▲</tspan></text><text transform="translate(303.71701,278.03774) scale(0.88699,-0.88698)" font-size="40" xml:space="preserve" data-paper-data="{&quot;index&quot;:null}" fill="#61b40e" fill-rule="nonzero" stroke="none" stroke-width="1" stroke-linecap="butt" stroke-linejoin="miter" stroke-miterlimit="10" stroke-dasharray="" stroke-dashoffset="0" font-family="Sans Serif" font-weight="normal" text-anchor="start" style="mix-blend-mode: normal"><tspan x="0" dy="0">▲</tspan></text><text transform="translate(443.22054,281.30348) scale(0.88699,-0.88698)" font-size="40" xml:space="preserve" data-paper-data="{&quot;index&quot;:null}" fill="#61b40e" fill-rule="nonzero" stroke="none" stroke-width="1" stroke-linecap="butt" stroke-linejoin="miter" stroke-miterlimit="10" stroke-dasharray="" stroke-dashoffset="0" font-family="Sans Serif" font-weight="normal" text-anchor="start" style="mix-blend-mode: normal"><tspan x="0" dy="0">▲</tspan></text><path d="M408.38308,263.70797v22.68674" fill="none" fill-rule="nonzero" stroke="#7ae212" stroke-width="10" stroke-linecap="round"/><path d="M340.49649,291.2321v-22.68674" fill="none" fill-rule="nonzero" stroke="#7ae212" stroke-width="10" stroke-linecap="round"/><path d="M304.25208,275.99755v-12.84946" fill="none" fill-rule="nonzero" stroke="#7ae212" stroke-width="10" stroke-linecap="round"/><path d="M212.1524,284.64637v-21.90206" fill="none" fill-rule="nonzero" stroke="#7ae212" stroke-width="10" stroke-linecap="round"/><path d="M141.00885,276.70959v-12.07148" fill="none" fill-rule="nonzero" stroke="#7ae212" stroke-width="10" stroke-linecap="round"/><path d="M77.13284,267.43496v24.73815" fill="none" fill-rule="nonzero" stroke="#7ae212" stroke-width="10" stroke-linecap="round"/><path d="M1.48077,264.2365v13.53137" fill="none" fill-rule="nonzero" stroke="#7ae212" stroke-width="10" stroke-linecap="round"/><path d="M468.93864,261.20045v22.68674" fill="none" fill-rule="nonzero" stroke="#7ae212" stroke-width="10" stroke-linecap="round"/><text transform="translate(494.38702,13.03653) rotate(-180) scale(0.70922,0.70922)" font-size="40" xml:space="preserve" data-paper-data="{&quot;index&quot;:null}" fill="#61b40e" fill-rule="nonzero" stroke="none" stroke-width="1" stroke-linecap="butt" stroke-linejoin="miter" stroke-miterlimit="10" stroke-dasharray="" stroke-dashoffset="0" font-family="Sans Serif" font-weight="normal" text-anchor="start" style="mix-blend-mode: normal"><tspan x="0" dy="0">▲</tspan></text><path d="M409.55046,425.52393v-407.50196h153.45771v407.50196z" data-paper-data="{&quot;index&quot;:null}" fill="#c48700" fill-rule="nonzero" stroke="none" stroke-width="0" stroke-linecap="butt"/><path d="M409.6746,57.90717v-31.37831h153.40401v31.37831z" data-paper-data="{&quot;index&quot;:null}" fill="#996900" fill-rule="nonzero" stroke="none" stroke-width="0" stroke-linecap="butt"/><path d="M409.47019,42.68275v-22.64599h153.50605v22.64599z" data-paper-data="{&quot;index&quot;:null}" fill="#539a0c" fill-rule="nonzero" stroke="none" stroke-width="0" stroke-linecap="butt"/><path d="M409.46562,28.03753v-22.64599h153.76959v22.64599z" data-paper-data="{&quot;index&quot;:null}" fill="#61b40e" fill-rule="nonzero" stroke="none" stroke-width="0" stroke-linecap="butt"/><path d="M409.46853,13.26214v-15.36693h153.76963v15.36693z" data-paper-data="{&quot;index&quot;:null}" fill="#7ae212" fill-rule="nonzero" stroke="none" stroke-width="0" stroke-linecap="butt"/><text transform="translate(498.99116,12.8975) rotate(-180) scale(0.64328,0.64327)" font-size="40" xml:space="preserve" data-paper-data="{&quot;index&quot;:null}" fill="#61b40e" fill-rule="nonzero" stroke="none" stroke-width="1" stroke-linecap="butt" stroke-linejoin="miter" stroke-miterlimit="10" stroke-dasharray="" stroke-dashoffset="0" font-family="Sans Serif" font-weight="normal" text-anchor="start" style="mix-blend-mode: normal"><tspan x="0" dy="0">▲</tspan></text><path d="M426.08633,32.22183v-21.90206" data-paper-data="{&quot;index&quot;:null}" fill="none" fill-rule="nonzero" stroke="#7ae212" stroke-width="10" stroke-linecap="round"/><text transform="translate(458.58189,24.55125) rotate(-180) scale(0.69886,0.69886)" font-size="40" xml:space="preserve" data-paper-data="{&quot;index&quot;:null}" fill="#61b40e" fill-rule="nonzero" stroke="none" stroke-width="1" stroke-linecap="butt" stroke-linejoin="miter" stroke-miterlimit="10" stroke-dasharray="" stroke-dashoffset="0" font-family="Sans Serif" font-weight="normal" text-anchor="start" style="mix-blend-mode: normal"><tspan x="0" dy="0">▲</tspan></text><path d="M472.25515,39.26557v-24.73815" data-paper-data="{&quot;index&quot;:null}" fill="none" fill-rule="nonzero" stroke="#7ae212" stroke-width="10" stroke-linecap="round"/><text transform="translate(555.75186,16.95099) rotate(-180) scale(0.69886,0.69886)" font-size="40" xml:space="preserve" data-paper-data="{&quot;index&quot;:null}" fill="#61b40e" fill-rule="nonzero" stroke="none" stroke-width="1" stroke-linecap="butt" stroke-linejoin="miter" stroke-miterlimit="10" stroke-dasharray="" stroke-dashoffset="0" font-family="Sans Serif" font-weight="normal" text-anchor="start" style="mix-blend-mode: normal"><tspan x="0" dy="0">▲</tspan></text><path d="M505.80897,31.66046v-24.73815" data-paper-data="{&quot;index&quot;:null}" fill="none" fill-rule="nonzero" stroke="#7ae212" stroke-width="10" stroke-linecap="round"/><path d="M557.3968,38.8166v-24.73815" data-paper-data="{&quot;index&quot;:null}" fill="none" fill-rule="nonzero" stroke="#7ae212" stroke-width="10" stroke-linecap="round"/><path d="M317.93674,54.19609c5.667,0 11.333,0 17,0c-0.172,0.99162 0.162,1.65829 1,2c0,2.66667 0,5.33333 0,8c-0.859,12.1746 -1.692,24.508 -2.5,37c-4.413,1.1324 -8.913,1.2991 -13.5,0.5c-0.626,-0.7504 -1.126,-1.5838 -1.5,-2.5c-0.949,-15.0704 -1.116,-30.0704 -0.5,-45z" fill="#61b40e" fill-rule="evenodd" stroke="none" stroke-width="1" stroke-linecap="butt" opacity="0.923"/><path d="M317.93674,54.19609c5.667,0 11.333,0 17,0c-0.172,0.99162 0.162,1.65829 1,2c0,2.66667 0,5.33333 0,8c-0.859,12.1746 -1.692,24.508 -2.5,37c-4.413,1.1324 -8.913,1.2991 -13.5,0.5c-0.626,-0.7504 -1.126,-1.5838 -1.5,-2.5c-0.949,-15.0704 -1.116,-30.0704 -0.5,-45z" fill="#61b40e" fill-rule="evenodd" stroke="none" stroke-width="1" stroke-linecap="butt" opacity="0.923"/><path d="M317.93674,54.19609c5.667,0 11.333,0 17,0c-0.172,0.99162 0.162,1.65829 1,2c0,2.66667 0,5.33333 0,8c-0.859,12.1746 -1.692,24.508 -2.5,37c-4.413,1.1324 -8.913,1.2991 -13.5,0.5c-0.626,-0.7504 -1.126,-1.5838 -1.5,-2.5c-0.949,-15.0704 -1.116,-30.0704 -0.5,-45z" fill="#61b40e" fill-rule="evenodd" stroke="none" stroke-width="1" stroke-linecap="butt" opacity="0.923"/><path d="M335.93674,108.19609c0,4.6667 0,9.3333 0,14c-1,0.3333 -1.667,1 -2,2c-5,0 -10,0 -15,0c-2.454,-2.1839 -3.454,-5.0172 -3,-8.5c-0.417,-3.5206 0.583,-6.5206 3,-9c5,-0.6667 10,-0.6667 15,0c0.544,0.7172 1.211,1.2172 2,1.5z" fill="#c48700" fill-rule="evenodd" stroke="none" stroke-width="1" stroke-linecap="butt" opacity="0.917"/><path d="M333.43674,101.19609c-4.413,1.1324 -8.913,1.2991 -13.5,0.5c-0.626,-0.7504 -1.126,-1.5838 -1.5,-2.5c-0.3768,-5.98372 -0.63032,-11.95635 -0.76049,-17.91788c5.77909,-0.48067 11.51429,-1.28982 17.23059,-2.22729c-0.49903,7.32547 -0.98899,14.70721 -1.4701,22.14517z" fill="#c48700" fill-rule="nonzero" stroke="none" stroke-width="1" stroke-linecap="butt" opacity="0.923"/><path d="M335.93674,108.19609c0,4.6667 0,9.3333 0,14c-1,0.3333 -1.667,1 -2,2c-5,0 -10,0 -15,0c-2.454,-2.1839 -3.454,-5.0172 -3,-8.5c-0.417,-3.5206 0.583,-6.5206 3,-9c5,-0.6667 10,-0.6667 15,0c0.544,0.7172 1.211,1.2172 2,1.5z" fill="#c48700" fill-rule="evenodd" stroke="none" stroke-width="1" stroke-linecap="butt" opacity="0.917"/><path d="M333.43674,101.19609c-4.413,1.1324 -8.913,1.2991 -13.5,0.5c-0.626,-0.7504 -1.126,-1.5838 -1.5,-2.5c-0.3768,-5.98372 -0.63032,-11.95635 -0.76049,-17.91788c5.77909,-0.48067 11.51429,-1.28982 17.23059,-2.22729c-0.49903,7.32547 -0.98899,14.70721 -1.4701,22.14517z" fill="#c48700" fill-rule="nonzero" stroke="none" stroke-width="1" stroke-linecap="butt" opacity="0.923"/><path d="M335.93674,108.19609c0,4.6667 0,9.3333 0,14c-1,0.3333 -1.667,1 -2,2c-5,0 -10,0 -15,0c-2.454,-2.1839 -3.454,-5.0172 -3,-8.5c-0.417,-3.5206 0.583,-6.5206 3,-9c5,-0.6667 10,-0.6667 15,0c0.544,0.7172 1.211,1.2172 2,1.5z" fill="#c48700" fill-rule="evenodd" stroke="none" stroke-width="1" stroke-linecap="butt" opacity="0.917"/><path d="M333.43674,101.19609c-4.413,1.1324 -8.913,1.2991 -13.5,0.5c-0.626,-0.7504 -1.126,-1.5838 -1.5,-2.5c-0.3768,-5.98372 -0.63032,-11.95635 -0.76049,-17.91788c5.77909,-0.48067 11.51429,-1.28982 17.23059,-2.22729c-0.49903,7.32547 -0.98899,14.70721 -1.4701,22.14517z" fill="#c48700" fill-rule="nonzero" stroke="none" stroke-width="1" stroke-linecap="butt" opacity="0.923"/><path d="M335.93674,108.19609c0,4.6667 0,9.3333 0,14c-1,0.3333 -1.667,1 -2,2c-5,0 -10,0 -15,0c-2.454,-2.1839 -3.454,-5.0172 -3,-8.5c-0.417,-3.5206 0.583,-6.5206 3,-9c5,-0.6667 10,-0.6667 15,0c0.544,0.7172 1.211,1.2172 2,1.5z" fill="#c48700" fill-rule="evenodd" stroke="none" stroke-width="1" stroke-linecap="butt" opacity="0.917"/><path d="M317.93674,54.19609c5.667,0 11.333,0 17,0c-0.172,0.99162 0.162,1.65829 1,2c0,2.66667 0,5.33333 0,8c-0.12622,1.78896 -0.25188,3.58136 -0.37699,5.37718c-5.9767,-0.75982 -11.96779,-1.51259 -17.96306,-2.21493c0.04593,-4.39348 0.15928,-8.7809 0.34005,-13.16225z" fill="#7be312" fill-rule="evenodd" stroke="none" stroke-width="1" stroke-linecap="butt" opacity="0.923"/><path d="" fill="#7be312" fill-rule="nonzero" stroke="none" stroke-width="1" stroke-linecap="butt" opacity="0.947"/><path d="" fill="#7be312" fill-rule="nonzero" stroke="none" stroke-width="1" stroke-linecap="butt" opacity="0.947"/><path d="" fill="#7be312" fill-rule="nonzero" stroke="none" stroke-width="1" stroke-linecap="butt" opacity="0.946"/><path d="" fill="#7be312" fill-rule="nonzero" stroke="none" stroke-width="1" stroke-linecap="butt" opacity="0.937"/><path d="" fill="#7be312" fill-rule="nonzero" stroke="none" stroke-width="1" stroke-linecap="butt" opacity="0.937"/><path d="" fill="#7be312" fill-rule="nonzero" stroke="none" stroke-width="1" stroke-linecap="butt" opacity="0.937"/><path d="" fill="#7be312" fill-rule="nonzero" stroke="none" stroke-width="1" stroke-linecap="butt" opacity="0.963"/><path d="" fill="#7be312" fill-rule="nonzero" stroke="none" stroke-width="1" stroke-linecap="butt" opacity="0.963"/><path d="M317.93674,54.19609c5.667,0 11.333,0 17,0c-0.172,0.99162 0.162,1.65829 1,2c0,2.66667 0,5.33333 0,8c-0.12622,1.78896 -0.25188,3.58136 -0.37699,5.37718c-5.9767,-0.75982 -11.96779,-1.51259 -17.96306,-2.21493c0.04593,-4.39348 0.15928,-8.7809 0.34005,-13.16225z" fill="#7be312" fill-rule="evenodd" stroke="none" stroke-width="1" stroke-linecap="butt" opacity="0.923"/><path d="" fill="#7be312" fill-rule="nonzero" stroke="none" stroke-width="1" stroke-linecap="butt" opacity="0.947"/><path d="" fill="#7be312" fill-rule="nonzero" stroke="none" stroke-width="1" stroke-linecap="butt" opacity="0.947"/><path d="" fill="#7be312" fill-rule="nonzero" stroke="none" stroke-width="1" stroke-linecap="butt" opacity="0.946"/><path d="" fill="#7be312" fill-rule="nonzero" stroke="none" stroke-width="1" stroke-linecap="butt" opacity="0.937"/><path d="" fill="#7be312" fill-rule="nonzero" stroke="none" stroke-width="1" stroke-linecap="butt" opacity="0.937"/><path d="" fill="#7be312" fill-rule="nonzero" stroke="none" stroke-width="1" stroke-linecap="butt" opacity="0.937"/><path d="" fill="#7be312" fill-rule="nonzero" stroke="none" stroke-width="1" stroke-linecap="butt" opacity="0.963"/><path d="" fill="#7be312" fill-rule="nonzero" stroke="none" stroke-width="1" stroke-linecap="butt" opacity="0.963"/><path d="M317.93674,54.19609c5.667,0 11.333,0 17,0c-0.172,0.99162 0.162,1.65829 1,2c0,2.66667 0,5.33333 0,8c-0.12622,1.78896 -0.25188,3.58136 -0.37699,5.37718c-5.9767,-0.75982 -11.96779,-1.51259 -17.96306,-2.21493c0.04593,-4.39348 0.15928,-8.7809 0.34005,-13.16225z" fill="#7be312" fill-rule="evenodd" stroke="none" stroke-width="1" stroke-linecap="butt" opacity="0.923"/><path d="" fill="#7be312" fill-rule="nonzero" stroke="none" stroke-width="1" stroke-linecap="butt" opacity="0.947"/><path d="" fill="#7be312" fill-rule="nonzero" stroke="none" stroke-width="1" stroke-linecap="butt" opacity="0.947"/><path d="" fill="#7be312" fill-rule="nonzero" stroke="none" stroke-width="1" stroke-linecap="butt" opacity="0.946"/><path d="" fill="#7be312" fill-rule="nonzero" stroke="none" stroke-width="1" stroke-linecap="butt" opacity="0.937"/><path d="" fill="#7be312" fill-rule="nonzero" stroke="none" stroke-width="1" stroke-linecap="butt" opacity="0.937"/><path d="" fill="#7be312" fill-rule="nonzero" stroke="none" stroke-width="1" stroke-linecap="butt" opacity="0.937"/><path d="" fill="#7be312" fill-rule="nonzero" stroke="none" stroke-width="1" stroke-linecap="butt" opacity="0.963"/><path d="" fill="#7be312" fill-rule="nonzero" stroke="none" stroke-width="1" stroke-linecap="butt" opacity="0.963"/><path d="M181.41083,127.7725c1.65948,0 3.31935,0 4.97883,0c1.1053,0.52822 2.06277,1.2942 2.8724,2.29792c1.03981,2.03224 0.40175,3.1812 -1.91493,3.44688c-0.80121,-0.29042 -1.50323,-0.73725 -2.10643,-1.34045c-2.04324,-0.44684 -2.93712,0.38295 -2.6809,2.48941c1.15586,-0.06304 2.30481,0.00077 3.44688,0.1915c0.94138,2.04002 0.30294,3.06129 -1.91493,3.0639c-0.44694,0.1915 -0.76597,0.51063 -0.95747,0.95746c-0.06856,4.05069 -0.26004,8.07206 -0.57448,12.06409c-1.2765,0.25534 -2.55337,0.25534 -3.82987,0c-0.1915,-0.1915 -0.38298,-0.38298 -0.57448,-0.57448c-0.12753,-4.08521 -0.25546,-8.17037 -0.38299,-12.25557c-1.94059,-0.37065 -2.51507,-1.45581 -1.72343,-3.25539c0.61317,-0.10471 1.18764,-0.2962 1.72343,-0.57448c-0.15703,-3.01141 1.0559,-5.18168 3.63838,-6.51077z" fill="#262626" fill-rule="evenodd" stroke="none" stroke-width="1" stroke-linecap="butt" opacity="0.905"/><path d="M87.19611,128.15549c1.21989,-0.18397 2.305,0.07135 3.25539,0.76597c0.41102,2.27853 0.66636,4.57647 0.76597,6.89377c1.9612,-1.10656 4.06763,-1.42575 6.31928,-0.95747c2.6158,1.07439 3.95625,3.05313 4.02136,5.9363c0.25534,3.19154 0.25534,6.38312 0,9.57467c-0.1915,0.1915 -0.38299,0.38298 -0.57448,0.57448c-1.29537,0.31543 -2.57199,0.25163 -3.82987,-0.19149c-0.30796,-3.17308 -0.49945,-6.36467 -0.57448,-9.57467c-1.13747,-2.52591 -2.79707,-2.9089 -4.97883,-1.14896c-0.35756,3.58433 -0.74054,7.15887 -1.14896,10.72363c-1.4043,0.51064 -2.80855,0.51064 -4.21285,0c-0.44664,-5.35726 -0.63813,-10.71907 -0.57448,-16.08545c0.04875,-1.92937 0.24024,-3.84432 0.57448,-5.7448c0.38096,-0.21675 0.7001,-0.47207 0.95746,-0.76597z" fill="#262626" fill-rule="evenodd" stroke="none" stroke-width="1" stroke-linecap="butt" opacity="0.91"/><path d="M139.2823,128.15549c1.02909,-0.06285 2.05051,0.00099 3.06389,0.19149c0.23975,0.28741 0.43124,0.60656 0.57448,0.95746c0.12753,3.57453 0.25545,7.1491 0.38298,10.72363c1.53654,-2.55804 3.5794,-4.60063 6.12779,-6.12779c2.34234,0.81255 2.72533,2.21685 1.14896,4.21286c-1.2382,1.36443 -2.32358,2.83254 -3.25539,4.40435c1.81038,2.45001 3.46985,5.00322 4.97882,7.65973c-0.05553,0.29567 -0.18306,0.55101 -0.38298,0.76597c-1.42663,0.29103 -2.83104,0.22719 -4.21286,-0.19149c-1.54152,-1.8604 -3.00951,-3.77534 -4.40435,-5.74481c-0.08311,1.93512 -0.2746,3.85006 -0.57448,5.74481c-1.35769,0.49459 -2.69814,0.49459 -4.02135,0c-0.06396,-3.70222 -0.12753,-7.4044 -0.1915,-11.10662c0.00958,-3.91708 0.26503,-7.74693 0.76597,-11.48959z" fill="#262626" fill-rule="evenodd" stroke="none" stroke-width="1" stroke-linecap="butt" opacity="0.914"/><path d="M249.58246,128.15549c1.2876,-0.16486 2.37261,0.21812 3.25539,1.14896c0.25545,7.02141 0.25545,14.04286 0,21.06427c-1.31824,0.85537 -2.72228,0.98305 -4.21286,0.38299c-0.59555,-7.13718 -0.72308,-14.28625 -0.38298,-21.44726c0.43852,-0.43522 0.88546,-0.8182 1.34045,-1.14896z" fill="#262626" fill-rule="evenodd" stroke="none" stroke-width="1" stroke-linecap="butt" opacity="0.907"/><path d="M290.94502,128.15549c4.08264,-0.56838 5.35913,1.02739 3.82986,4.78733c-2.65409,1.3071 -4.44149,0.60496 -5.36181,-2.10643c0.21868,-1.07721 0.72921,-1.97084 1.53195,-2.6809z" fill="#262626" fill-rule="evenodd" stroke="none" stroke-width="1" stroke-linecap="butt" opacity="0.851"/><path d="M332.30758,128.15549c1.63421,-0.11375 3.23011,0.01391 4.78734,0.38298c0.15587,4.74157 -0.09958,9.46505 -0.76597,14.1705c-1.04364,0.86467 -2.1926,0.99236 -3.44688,0.38299c-0.42971,-4.27785 -0.87666,-8.55455 -1.34046,-12.83006c0.09881,-0.76955 0.35426,-1.47169 0.76597,-2.10642z" fill="#262626" fill-rule="evenodd" stroke="none" stroke-width="1" stroke-linecap="butt" opacity="0.904"/><path d="M66.89781,132.75133c0,-0.89362 0,-1.78727 0,-2.68091c0.37282,-0.18641 0.7558,-0.3779 1.14896,-0.57448c5.36182,-0.25532 10.72362,-0.25532 16.08544,0c1.17588,0.98396 1.43123,2.19675 0.76598,3.63838c-1.92171,0.27349 -3.83665,0.52882 -5.7448,0.76597c-0.31895,5.35726 -0.51044,10.71907 -0.57448,16.08544c-0.19084,1.34053 -0.95682,1.97881 -2.29792,1.91493c-0.86574,0.02332 -1.63172,-0.23197 -2.29792,-0.76597c-0.12765,-5.61715 -0.25533,-11.23426 -0.38298,-16.85142c-1.93117,-0.51324 -3.90993,-0.83242 -5.9363,-0.95747c-0.20843,-0.27468 -0.46375,-0.46617 -0.76597,-0.57448z" fill="#262626" fill-rule="evenodd" stroke="none" stroke-width="1" stroke-linecap="butt" opacity="0.909"/><path d="M108.64336,134.66626c1.41016,-0.06331 2.81419,0.00054 4.21285,0.1915c0.97048,0.19774 1.80004,0.64456 2.48942,1.34045c0.78627,-1.45213 1.99881,-1.89892 3.63837,-1.34045c0.31903,0.31914 0.63844,0.63833 0.95746,0.95747c0.25545,4.59584 0.25545,9.19168 0,13.78752c-0.17809,0.54798 -0.4975,0.99481 -0.95746,1.34045c-1.48944,0.39367 -2.76632,0.07453 -3.82987,-0.95747c-7.27789,3.3817 -11.61843,1.08378 -13.02154,-6.89376c0.52178,-4.1178 2.69205,-6.92636 6.51077,-8.42571zM110.17531,138.87911c4.22396,-0.04982 5.81987,1.9928 4.78733,6.12779c-1.11794,2.11593 -2.84137,2.81806 -5.17032,2.10643c-0.95747,-0.44683 -1.65948,-1.14896 -2.10643,-2.10643c-0.87168,-2.82407 -0.04174,-4.86665 2.48942,-6.12779z" fill="#262626" fill-rule="evenodd" stroke="none" stroke-width="1" stroke-linecap="butt" opacity="0.912"/><path d="M128.55867,134.66626c5.41276,-0.90852 8.28515,1.3894 8.6172,6.89376c0.28341,3.20498 0.21983,6.39657 -0.1915,9.57467c-1.50782,0.11241 -2.97581,-0.01528 -4.40435,-0.38298c-0.30294,-3.69888 -0.5584,-7.40111 -0.76597,-11.10662c-1.75293,-1.55159 -3.28488,-1.29626 -4.59584,0.76597c-0.33014,0.6078 -0.58558,1.24609 -0.76597,1.91494c-0.12753,2.80856 -0.25545,5.61715 -0.38299,8.42571c-1.40441,0.51064 -2.80845,0.51064 -4.21286,0c-0.41554,-2.59336 -0.60702,-5.21046 -0.57447,-7.85123c-0.04021,-2.5189 0.15127,-5.00832 0.57447,-7.46824c0.66563,-0.24017 1.36765,-0.36781 2.10643,-0.38298c0.96168,-0.08119 1.79162,0.1741 2.48942,0.76597c0.71848,-0.42461 1.42049,-0.80761 2.10643,-1.14897z" fill="#262626" fill-rule="evenodd" stroke="none" stroke-width="1" stroke-linecap="butt" opacity="0.907"/><path d="M156.5167,134.66626c3.65982,-0.91377 6.21282,0.29904 7.65974,3.63837c-0.1915,0.95747 -0.76597,1.53195 -1.72344,1.72344c-1.36381,-0.58608 -2.70427,-1.22437 -4.02136,-1.91493c-1.49824,0.78631 -1.49824,1.61613 0,2.48941c1.61391,0.8708 3.27339,1.63677 4.97883,2.29792c1.64531,1.72907 1.96472,3.70785 0.95746,5.93629c-0.74223,0.99803 -1.69969,1.70015 -2.8724,2.10643c-1.91493,0.25534 -3.82987,0.25534 -5.7448,0c-2.33852,-0.79727 -3.42353,-2.39306 -3.25539,-4.78734c1.80846,-1.40931 3.40399,-1.09017 4.78734,0.95747c1.29948,0.44714 2.32052,0.12799 3.0639,-0.95747c-1.96242,-1.18983 -4.00489,-2.27494 -6.12779,-3.25538c-2.12213,-2.51887 -1.9946,-4.94443 0.38299,-7.27675c0.69512,-0.28985 1.33317,-0.60903 1.91493,-0.95747z" fill="#262626" fill-rule="evenodd" stroke="none" stroke-width="1" stroke-linecap="butt" opacity="0.883"/><path d="M195.19835,134.66626c5.03665,-1.08592 8.80257,0.57368 11.29811,4.97883c1.37416,4.81867 -0.09383,8.45704 -4.40434,10.91513c-5.63641,2.05917 -9.78531,0.46337 -12.44707,-4.78734c-1.17692,-5.30624 0.67406,-9.00846 5.55331,-11.10662zM197.49627,138.49613c4.24043,0.69956 5.58088,2.99748 4.02136,6.89376c-1.43352,1.4398 -3.15696,1.88663 -5.17032,1.34045c-3.31858,-3.25937 -2.93559,-6.00412 1.14897,-8.23421z" fill="#262626" fill-rule="evenodd" stroke="none" stroke-width="1" stroke-linecap="butt" opacity="0.905"/><path d="M208.98587,134.66626c1.64416,-0.36935 2.85708,0.14128 3.63837,1.53195c1.30062,-1.41808 2.89652,-1.86491 4.78733,-1.34045c0.59477,1.36547 0.46725,2.64207 -0.38298,3.82987c-1.57101,0.27919 -2.91147,0.98136 -4.02137,2.10643c-0.23592,3.19312 -0.49099,6.38465 -0.76597,9.57467c-0.58406,0.46729 -1.28645,0.72262 -2.10643,0.76597c-0.63844,-0.06384 -1.27649,-0.12765 -1.91493,-0.1915c-0.23975,-0.2874 -0.43124,-0.60658 -0.57448,-0.95747c-0.25545,-4.59584 -0.25545,-9.19168 0,-13.78752c0.26426,-0.70861 0.71082,-1.21928 1.34045,-1.53195z" fill="#262626" fill-rule="evenodd" stroke="none" stroke-width="1" stroke-linecap="butt" opacity="0.91"/><path d="M230.81611,134.66626c1.54535,-0.22967 2.88581,0.15331 4.02137,1.14897c4.17609,-2.03653 7.87841,-1.39825 11.10661,1.91493c2.1229,4.32599 1.67595,8.34735 -1.34045,12.06408c-3.1087,1.69537 -6.23656,1.75921 -9.38317,0.19149c-0.49367,2.23174 -0.74913,4.52965 -0.76598,6.89375c-0.14324,0.35089 -0.33473,0.67007 -0.57448,0.95747c-1.37531,0.30202 -2.71576,0.23818 -4.02135,-0.19149c-0.25545,-7.27675 -0.25545,-14.55349 0,-21.83024c0.26732,-0.45598 0.58635,-0.83898 0.95746,-1.14897zM236.9439,138.87911c3.14202,-0.55992 5.05696,0.71672 5.7448,3.82987c-0.4121,3.93231 -2.45456,5.27277 -6.12779,4.02136c-1.7828,-1.43417 -2.35728,-3.28526 -1.72344,-5.55331c0.52087,-0.96612 1.22287,-1.7321 2.10643,-2.29792z" fill="#262626" fill-rule="evenodd" stroke="none" stroke-width="1" stroke-linecap="butt" opacity="0.925"/><path d="M259.9231,134.66626c2.4626,-0.34312 4.69695,0.16756 6.70227,1.53195c0.78627,-1.45213 1.99881,-1.89892 3.63837,-1.34045c0.19149,0.1915 0.38299,0.38298 0.57448,0.57448c0.62273,4.68672 0.75027,9.41021 0.38299,14.17051c-0.17809,0.54798 -0.4975,0.99481 -0.95747,1.34045c-1.02143,0.25534 -2.04246,0.25534 -3.06389,0c-0.2095,-0.35411 -0.46456,-0.67325 -0.76597,-0.95747c-2.93444,1.82118 -5.99833,2.01267 -9.19168,0.57448c-4.73065,-4.38343 -4.9861,-8.97928 -0.76597,-13.78753c1.17347,-0.71189 2.32243,-1.41403 3.44688,-2.10643zM261.45504,138.87911c4.9076,0.36422 6.24805,2.78979 4.02137,7.27675c-3.82986,2.3222 -6.19175,1.30094 -7.08526,-3.06389c0.19187,-2.05591 1.2133,-3.46022 3.0639,-4.21286z" fill="#262626" fill-rule="evenodd" stroke="none" stroke-width="1" stroke-linecap="butt" opacity="0.912"/><path d="M272.56166,134.66626c1.28301,-0.0632 2.55949,0.00065 3.82986,0.1915c0.31903,0.31914 0.63844,0.63833 0.95747,0.95747c0.97623,2.61327 2.06162,5.16653 3.25539,7.65973c1.14781,-2.99542 2.55183,-5.86782 4.21285,-8.6172c1.98387,-0.67379 3.38828,-0.09932 4.21285,1.72343c-0.29452,1.15283 -0.61392,2.30179 -0.95746,3.44689c-3.03211,5.87203 -5.90451,11.80832 -8.61721,17.80888c-1.16965,0.31458 -2.3186,0.25078 -3.44688,-0.19149c-0.16507,-0.3039 -0.29298,-0.62305 -0.38298,-0.95747c0.71121,-2.37961 1.47718,-4.74137 2.29792,-7.08525c-1.84983,-4.21094 -3.70118,-8.42379 -5.55331,-12.63856c-0.25966,-0.80335 -0.19571,-1.56932 0.19149,-2.29792z" fill="#262626" fill-rule="evenodd" stroke="none" stroke-width="1" stroke-linecap="butt" opacity="0.904"/><path d="M291.328,134.66626c0.9027,-0.06254 1.79621,0.0013 2.68091,0.1915c0.45997,0.34564 0.77938,0.79247 0.95747,1.34045c0.25545,4.72349 0.25545,9.44702 0,14.17051c-0.19149,0.1915 -0.38299,0.38298 -0.57448,0.57448c-1.37531,0.30202 -2.71576,0.23819 -4.02136,-0.19149c-0.25545,-4.97883 -0.25545,-9.95766 0,-14.93648c0.26733,-0.45598 0.58635,-0.83898 0.95746,-1.14897z" fill="#262626" fill-rule="evenodd" stroke="none" stroke-width="1" stroke-linecap="butt" opacity="0.908"/><path d="M303.20059,134.66626c4.88921,-1.04027 7.76161,0.87466 8.6172,5.7448c0.3129,3.54059 0.24894,7.05128 -0.19149,10.53214c-1.2765,0.25534 -2.55337,0.25534 -3.82987,0c-0.19149,-0.1915 -0.38299,-0.38298 -0.57448,-0.57448c-0.12754,-3.31923 -0.25545,-6.63843 -0.38298,-9.95766c-0.78895,-1.70621 -2.00187,-2.15304 -3.63837,-1.34045c-0.8847,0.6271 -1.45918,1.45688 -1.72344,2.48942c-0.12754,2.93625 -0.25545,5.87245 -0.38298,8.8087c-0.6978,0.59187 -1.52774,0.84716 -2.48942,0.76597c-0.63844,-0.12765 -1.2765,-0.25534 -1.91494,-0.38298c-0.43928,-4.96137 -0.50325,-9.94019 -0.1915,-14.93648c0.6978,-0.59187 1.52774,-0.84716 2.48942,-0.76597c1.55416,1.07535 2.95819,0.94769 4.21286,-0.38299z" fill="#262626" fill-rule="evenodd" stroke="none" stroke-width="1" stroke-linecap="butt" opacity="0.923"/><path d="M318.52006,134.66626c2.41665,-0.24653 4.71456,0.13647 6.89376,1.14897c1.60969,-1.51712 3.2056,-1.51712 4.78733,0c0.25545,5.36182 0.25545,10.72362 0,16.08543c-0.49023,3.29913 -2.34158,5.40556 -5.5533,6.31929c-2.04247,0.25534 -4.08532,0.25534 -6.12779,0c-1.51318,-0.20535 -2.85364,-0.77984 -4.02137,-1.72344c-0.25583,-2.42377 0.82955,-3.38123 3.25539,-2.87239c2.08958,1.10951 4.13242,1.10951 6.12778,0c1.22364,-0.84031 1.60663,-1.92543 1.14896,-3.25539c-4.98534,2.45211 -8.87877,1.30315 -11.68109,-3.44688c-1.86668,-5.71884 -0.14324,-9.804 5.17032,-12.25558zM320.05201,138.87911c4.30324,-0.22236 6.02668,1.82027 5.17032,6.12779c-1.25504,2.1481 -3.10602,2.85026 -5.55331,2.10643c-3.12517,-2.88696 -2.99763,-5.63171 0.38299,-8.23422z" fill="#262626" fill-rule="evenodd" stroke="none" stroke-width="1" stroke-linecap="butt" opacity="0.913"/><path d="M333.07355,145.38989c3.12709,-0.50738 4.59507,0.76923 4.40434,3.82986c-0.30064,0.68401 -0.7472,1.2585 -1.34045,1.72344c-3.55067,0.91691 -5.01905,-0.42354 -4.40435,-4.02136c0.26426,-0.70861 0.71082,-1.21928 1.34046,-1.53195z" fill="#262626" fill-rule="evenodd" stroke="none" stroke-width="1" stroke-linecap="butt" opacity="0.865"/><path d="M87.19611,156.11351c1.4763,-0.25071 2.56145,0.25997 3.25539,1.53195c0.25534,6.89376 0.25534,13.78752 0,20.68128c-0.63105,0.58521 -1.39702,0.84065 -2.29792,0.76597c-0.9009,0.07468 -1.66687,-0.18077 -2.29792,-0.76597c-0.31902,-7.15266 -0.25518,-14.30161 0.19149,-21.44726c0.47441,-0.16943 0.85739,-0.42476 1.14896,-0.76597z" fill="#262626" fill-rule="evenodd" stroke="none" stroke-width="1" stroke-linecap="butt" opacity="0.898"/><path d="M256.47622,156.11351c1.15585,-0.06304 2.30481,0.00077 3.44688,0.1915c0.1915,0.1915 0.38299,0.38298 0.57449,0.57447c0.25545,7.27675 0.25545,14.5535 0,21.83025c-1.3056,0.42971 -2.64606,0.49367 -4.02137,0.1915c-0.23975,-0.28724 -0.43124,-0.60665 -0.57448,-0.95747c-2.68933,1.64186 -5.56173,1.96089 -8.6172,0.95747c-2.34963,-1.43927 -3.69008,-3.54569 -4.02136,-6.31929c-0.51321,-7.27383 2.86972,-10.52923 10.14915,-9.76616c0.82879,0.35017 1.59475,0.797 2.29792,1.34046c0.26809,-2.7019 0.52355,-5.3828 0.76598,-8.04272zM250.34843,166.83714c4.44686,-0.21485 6.1703,1.828 5.17032,6.12779c-1.11794,2.11601 -2.84138,2.81802 -5.17032,2.10643c-0.95747,-0.44694 -1.65948,-1.14896 -2.10643,-2.10643c-0.75984,-2.61963 -0.05745,-4.6621 2.10643,-6.12779z" fill="#262626" fill-rule="evenodd" stroke="none" stroke-width="1" stroke-linecap="butt" opacity="0.916"/><path d="M361.03158,156.87948c0,0.89362 0,1.78729 0,2.68091c-0.36001,3.78652 -0.80657,7.61646 -1.34046,11.4896c-1.24088,0.58827 -2.38984,0.46073 -3.44688,-0.38298c-0.49061,-4.59017 -0.74606,-9.18602 -0.76597,-13.78753c1.85098,-1.00974 3.70195,-1.00974 5.55331,0z" fill="#262626" fill-rule="evenodd" stroke="none" stroke-width="1" stroke-linecap="butt" opacity="0.907"/><path d="M71.49365,179.85869c-1.14896,0 -2.29792,0 -3.44688,0c-0.44153,-7.24879 -0.50536,-14.52542 -0.1915,-21.83024c0.1915,-0.1915 0.38299,-0.38298 0.57448,-0.57448c3.70222,-0.25534 7.40439,-0.25534 11.10661,0c4.49327,2.17846 5.96142,5.68919 4.40435,10.53213c-0.86414,2.01336 -2.33224,3.35382 -4.40435,4.02136c-2.18999,0.08081 -4.36022,0.2723 -6.51077,0.57448c-0.31722,1.774 -0.50873,3.56101 -0.57449,5.36182c-0.14021,0.74759 -0.45939,1.38565 -0.95746,1.91493zM73.40859,161.09234c3.56595,-0.8407 5.60857,0.49975 6.12779,4.02136c-0.80737,2.7012 -2.59466,3.59472 -5.36181,2.68091c-1.49836,-0.887 -2.26433,-2.22738 -2.29792,-4.02136c0.08974,-1.19059 0.60037,-2.08421 1.53195,-2.6809z" fill="#262626" fill-rule="evenodd" stroke="none" stroke-width="1" stroke-linecap="butt" opacity="0.93"/><path d="M97.15376,162.62429c4.16582,-0.91782 7.5489,0.23113 10.14915,3.44688c1.1076,1.86859 1.17155,3.71956 0.19149,5.5533c-3.86338,0.36268 -7.69324,0.74568 -11.48959,1.14896c1.25861,2.31707 3.17354,3.08304 5.74479,2.29792c1.16002,-0.28035 2.30899,-0.59937 3.44688,-0.95747c2.44652,0.76406 2.82951,2.10451 1.14897,4.02136c-4.16008,1.87817 -8.24524,1.75025 -12.25557,-0.38299c-4.05809,-4.47482 -4.05809,-8.94313 0,-13.40454c0.9955,-0.68747 2.01677,-1.26193 3.06389,-1.72343zM99.45168,166.45415c1.56856,-0.05247 2.84517,0.52201 3.82987,1.72344c-2.17027,0.25545 -4.3405,0.25545 -6.51077,0c0.80128,-0.77976 1.6949,-1.35424 2.6809,-1.72344z" fill="#262626" fill-rule="evenodd" stroke="none" stroke-width="1" stroke-linecap="butt" opacity="0.903"/><path d="M115.53712,162.62429c2.33813,-0.32515 4.44455,0.18547 6.31927,1.53195c0.78627,-1.45213 1.99881,-1.89893 3.63838,-1.34046c0.30946,0.11781 0.56491,0.30931 0.76597,0.57449c0.27498,3.81914 0.53005,7.64901 0.76597,11.4896c0.22481,3.16002 -1.1796,4.50048 -4.21285,4.02137c-0.31903,-0.31903 -0.63844,-0.63844 -0.95747,-0.95747c-7.35296,3.44037 -11.75731,1.14245 -13.21303,-6.89376c0.49903,-4.32506 2.79695,-7.13366 6.89376,-8.4257zM116.68608,166.83714c4.66362,0.26388 6.13162,2.5618 4.40435,6.89377c-1.30062,1.4182 -2.89652,1.86476 -4.78733,1.34045c-2.14818,-1.25504 -2.85019,-3.10603 -2.10643,-5.55331c0.64878,-1.09458 1.47872,-1.98808 2.48942,-2.6809z" fill="#262626" fill-rule="evenodd" stroke="none" stroke-width="1" stroke-linecap="butt" opacity="0.91"/><path d="M131.62256,162.62429c2.14664,-0.22669 4.18949,0.09249 6.12779,0.95747c2.0486,1.71742 1.98502,3.18568 -0.1915,4.40434c-1.29756,-0.48907 -2.51048,-1.12751 -3.63837,-1.91493c-1.68744,0.69665 -1.81497,1.52659 -0.38298,2.48942c2.36839,0.78665 4.47481,1.99919 6.31928,3.63837c0.39869,1.89195 0.14324,3.67897 -0.76597,5.36181c-0.34584,0.45997 -0.7924,0.77938 -1.34045,0.95747c-2.87087,0.87206 -5.67969,0.74453 -8.4257,-0.38298c-2.59703,-1.954 -2.53308,-3.67744 0.19149,-5.17032c1.31441,0.93142 2.71844,1.6974 4.21285,2.29792c0.90998,-0.01647 1.48446,-0.46303 1.72344,-1.34046c-2.00378,-1.01415 -4.04625,-2.03518 -6.12778,-3.06389c-2.39137,-3.61463 -1.6254,-6.35934 2.29792,-8.23422z" fill="#262626" fill-rule="evenodd" stroke="none" stroke-width="1" stroke-linecap="butt" opacity="0.884"/><path d="M146.55904,162.62429c6.0014,-1.09116 9.70373,1.2706 11.10661,7.08525c-0.15013,1.18419 -0.78857,1.95017 -1.91493,2.29792c-3.63608,0.01034 -7.21088,0.26541 -10.72363,0.76597c0.5358,1.17347 1.42931,1.93945 2.68091,2.29792c2.60086,0.06549 5.15423,-0.18958 7.65973,-0.76597c1.53195,1.2765 1.53195,2.55337 0,3.82987c-3.82987,1.7874 -7.65973,1.7874 -11.48959,0c-3.43922,-2.95092 -4.39668,-6.58929 -2.8724,-10.91513c1.35616,-2.19069 3.20713,-3.72262 5.5533,-4.59583zM148.47398,166.45415c1.54727,-0.11873 2.82376,0.39218 3.82986,1.53194c-2.1589,0.44541 -4.32928,0.50938 -6.51077,0.1915c0.80121,-0.77976 1.6951,-1.35424 2.68091,-1.72344z" fill="#262626" fill-rule="evenodd" stroke="none" stroke-width="1" stroke-linecap="butt" opacity="0.911"/><path d="M213.58171,162.62429c1.41016,-0.06331 2.81419,0.00053 4.21286,0.19149c0.7993,0.3034 1.50169,0.7502 2.10643,1.34046c0.78627,-1.45213 1.99881,-1.89893 3.63837,-1.34046c0.30946,0.11781 0.56491,0.30931 0.76597,0.57449c0.2995,3.68816 0.55456,7.39049 0.76597,11.10661c0.41439,3.35075 -0.99003,4.81874 -4.21286,4.40435c-0.31903,-0.31903 -0.63844,-0.63844 -0.95746,-0.95747c-3.18491,1.97736 -6.44031,2.04094 -9.76616,0.1915c-3.04972,-2.95053 -3.87966,-6.46099 -2.48941,-10.53214c1.48177,-2.31638 3.46028,-3.97598 5.93629,-4.97883zM214.73067,166.83714c4.28026,-0.00038 5.87616,2.04209 4.78733,6.12779c-1.11794,2.11601 -2.84137,2.81802 -5.17032,2.10643c-2.04898,-1.29105 -2.75099,-3.14203 -2.10643,-5.55331c0.64878,-1.09458 1.47871,-1.98808 2.48942,-2.6809z" fill="#262626" fill-rule="evenodd" stroke="none" stroke-width="1" stroke-linecap="butt" opacity="0.917"/><path d="M233.11403,162.62429c4.88423,-1.04647 7.75663,0.86846 8.6172,5.7448c0.3083,3.46526 0.24473,6.91215 -0.19149,10.34064c-1.40441,0.51052 -2.80844,0.51052 -4.21285,0c-0.3083,-3.30096 -0.4998,-6.61993 -0.57448,-9.95766c-0.58252,-1.98349 -1.79506,-2.55781 -3.63837,-1.72344c-0.71925,0.59095 -1.29372,1.29296 -1.72343,2.10643c-0.02298,3.23087 -0.27844,6.4223 -0.76598,9.57467c-1.32322,0.49444 -2.66367,0.49444 -4.02136,0c-0.26579,-3.43922 -0.52125,-6.8861 -0.76598,-10.34064c0.26694,-1.52084 0.45844,-3.05259 0.57448,-4.59584c0.65032,-0.47223 1.41629,-0.72752 2.29792,-0.76597c0.91112,0.05886 1.74106,0.31417 2.48941,0.76597c0.63002,-0.45817 1.26807,-0.84115 1.91493,-1.14896z" fill="#262626" fill-rule="evenodd" stroke="none" stroke-width="1" stroke-linecap="butt" opacity="0.92"/><path d="M311.6263,162.62429c1.15585,-0.06304 2.30481,0.00077 3.44688,0.19149c0.31903,0.31914 0.63844,0.63833 0.95747,0.95747c0.34584,-0.46012 0.7924,-0.7793 1.34045,-0.95747c2.75176,-0.65813 5.17721,-0.08364 7.27675,1.72344c0.74721,-0.81285 1.6411,-1.38733 2.6809,-1.72344c2.59857,-0.58019 4.96044,-0.13335 7.08526,1.34046c0.59823,0.94111 0.98121,1.96242 1.14896,3.06389c0.50324,3.69123 0.63117,7.39318 0.38299,11.10662c-0.63116,0.58521 -1.39714,0.84065 -2.29792,0.76597c-0.90078,0.07468 -1.66676,-0.18077 -2.29792,-0.76597c-0.12754,-3.44688 -0.25545,-6.89377 -0.38299,-10.34064c-1.53195,-2.04259 -3.0639,-2.04259 -4.59584,0c-0.36843,3.56599 -0.6235,7.14079 -0.76597,10.72363c-1.3056,0.42971 -2.64605,0.49367 -4.02136,0.1915c-0.31328,-3.22552 -0.50477,-6.48091 -0.57448,-9.76617c-0.71657,-2.33928 -2.12098,-2.97772 -4.21286,-1.91494c-0.29911,0.47069 -0.4906,0.98121 -0.57448,1.53195c-0.19187,3.34769 -0.51129,6.66704 -0.95747,9.95766c-1.17692,0.4278 -2.38984,0.49176 -3.63837,0.1915c-0.26464,-0.40865 -0.45614,-0.8556 -0.57448,-1.34046c-0.25545,-4.4683 -0.25545,-8.93623 0,-13.40453c0.15702,-0.53645 0.34851,-1.04709 0.57448,-1.53195z" fill="#262626" fill-rule="evenodd" stroke="none" stroke-width="1" stroke-linecap="butt" opacity="0.907"/><path d="M343.03121,162.62429c3.87429,-0.80994 7.12968,0.21133 9.76616,3.0639c1.01798,1.69816 1.33701,3.48556 0.95747,5.36181c-0.44618,0.41516 -0.9567,0.73419 -1.53195,0.95747c-3.44459,0.1915 -6.89146,0.25507 -10.34064,0.1915c-0.01187,1.5691 0.7541,2.52656 2.29792,2.8724c2.32052,0.32362 4.55487,0.00459 6.70227,-0.95747c1.73723,0.3332 2.37567,1.35462 1.91493,3.06389c-1.86591,1.79238 -4.10026,2.55835 -6.70227,2.29792c-7.66471,-0.63538 -10.53712,-4.72031 -8.61721,-12.25557c1.35616,-2.19069 3.20713,-3.72262 5.55331,-4.59583zM344.94614,166.45415c1.54726,-0.11873 2.82376,0.39218 3.82987,1.53194c-2.15889,0.44541 -4.32928,0.50938 -6.51077,0.1915c0.8012,-0.77976 1.69509,-1.35424 2.6809,-1.72344z" fill="#262626" fill-rule="evenodd" stroke="none" stroke-width="1" stroke-linecap="butt" opacity="0.91"/><path d="M361.03158,174.87986c0,0.89351 0,1.7874 0,2.68091c-1.17041,1.43275 -2.70236,1.87932 -4.59584,1.34046c-2.13017,-1.97736 -2.00263,-3.76438 0.38299,-5.36182c1.75561,-0.51205 3.16003,-0.06549 4.21285,1.34045z" fill="#262626" fill-rule="evenodd" stroke="none" stroke-width="1" stroke-linecap="butt" opacity="0.874"/><path d="M181.41083,127.7725c1.65948,0 3.31935,0 4.97883,0c1.1053,0.52822 2.06277,1.2942 2.8724,2.29792c1.03981,2.03224 0.40175,3.1812 -1.91493,3.44688c-0.80121,-0.29042 -1.50323,-0.73725 -2.10643,-1.34045c-2.04324,-0.44684 -2.93712,0.38295 -2.6809,2.48941c1.15586,-0.06304 2.30481,0.00077 3.44688,0.1915c0.94138,2.04002 0.30294,3.06129 -1.91493,3.0639c-0.44694,0.1915 -0.76597,0.51063 -0.95747,0.95746c-0.06856,4.05069 -0.26004,8.07206 -0.57448,12.06409c-1.2765,0.25534 -2.55337,0.25534 -3.82987,0c-0.1915,-0.1915 -0.38298,-0.38298 -0.57448,-0.57448c-0.12753,-4.08521 -0.25546,-8.17037 -0.38299,-12.25557c-1.94059,-0.37065 -2.51507,-1.45581 -1.72343,-3.25539c0.61317,-0.10471 1.18764,-0.2962 1.72343,-0.57448c-0.15703,-3.01141 1.0559,-5.18168 3.63838,-6.51077z" fill="#262626" fill-rule="evenodd" stroke="none" stroke-width="1" stroke-linecap="butt" opacity="0.905"/><path d="M87.19611,128.15549c1.21989,-0.18397 2.305,0.07135 3.25539,0.76597c0.41102,2.27853 0.66636,4.57647 0.76597,6.89377c1.9612,-1.10656 4.06763,-1.42575 6.31928,-0.95747c2.6158,1.07439 3.95625,3.05313 4.02136,5.9363c0.25534,3.19154 0.25534,6.38312 0,9.57467c-0.1915,0.1915 -0.38299,0.38298 -0.57448,0.57448c-1.29537,0.31543 -2.57199,0.25163 -3.82987,-0.19149c-0.30796,-3.17308 -0.49945,-6.36467 -0.57448,-9.57467c-1.13747,-2.52591 -2.79707,-2.9089 -4.97883,-1.14896c-0.35756,3.58433 -0.74054,7.15887 -1.14896,10.72363c-1.4043,0.51064 -2.80855,0.51064 -4.21285,0c-0.44664,-5.35726 -0.63813,-10.71907 -0.57448,-16.08545c0.04875,-1.92937 0.24024,-3.84432 0.57448,-5.7448c0.38096,-0.21675 0.7001,-0.47207 0.95746,-0.76597z" fill="#262626" fill-rule="evenodd" stroke="none" stroke-width="1" stroke-linecap="butt" opacity="0.91"/><path d="M139.2823,128.15549c1.02909,-0.06285 2.05051,0.00099 3.06389,0.19149c0.23975,0.28741 0.43124,0.60656 0.57448,0.95746c0.12753,3.57453 0.25545,7.1491 0.38298,10.72363c1.53654,-2.55804 3.5794,-4.60063 6.12779,-6.12779c2.34234,0.81255 2.72533,2.21685 1.14896,4.21286c-1.2382,1.36443 -2.32358,2.83254 -3.25539,4.40435c1.81038,2.45001 3.46985,5.00322 4.97882,7.65973c-0.05553,0.29567 -0.18306,0.55101 -0.38298,0.76597c-1.42663,0.29103 -2.83104,0.22719 -4.21286,-0.19149c-1.54152,-1.8604 -3.00951,-3.77534 -4.40435,-5.74481c-0.08311,1.93512 -0.2746,3.85006 -0.57448,5.74481c-1.35769,0.49459 -2.69814,0.49459 -4.02135,0c-0.06396,-3.70222 -0.12753,-7.4044 -0.1915,-11.10662c0.00958,-3.91708 0.26503,-7.74693 0.76597,-11.48959z" fill="#262626" fill-rule="evenodd" stroke="none" stroke-width="1" stroke-linecap="butt" opacity="0.914"/><path d="M249.58246,128.15549c1.2876,-0.16486 2.37261,0.21812 3.25539,1.14896c0.25545,7.02141 0.25545,14.04286 0,21.06427c-1.31824,0.85537 -2.72228,0.98305 -4.21286,0.38299c-0.59555,-7.13718 -0.72308,-14.28625 -0.38298,-21.44726c0.43852,-0.43522 0.88546,-0.8182 1.34045,-1.14896z" fill="#262626" fill-rule="evenodd" stroke="none" stroke-width="1" stroke-linecap="butt" opacity="0.907"/><path d="M290.94502,128.15549c4.08264,-0.56838 5.35913,1.02739 3.82986,4.78733c-2.65409,1.3071 -4.44149,0.60496 -5.36181,-2.10643c0.21868,-1.07721 0.72921,-1.97084 1.53195,-2.6809z" fill="#262626" fill-rule="evenodd" stroke="none" stroke-width="1" stroke-linecap="butt" opacity="0.851"/><path d="M332.30758,128.15549c1.63421,-0.11375 3.23011,0.01391 4.78734,0.38298c0.15587,4.74157 -0.09958,9.46505 -0.76597,14.1705c-1.04364,0.86467 -2.1926,0.99236 -3.44688,0.38299c-0.42971,-4.27785 -0.87666,-8.55455 -1.34046,-12.83006c0.09881,-0.76955 0.35426,-1.47169 0.76597,-2.10642z" fill="#262626" fill-rule="evenodd" stroke="none" stroke-width="1" stroke-linecap="butt" opacity="0.904"/><path d="M66.89781,132.75133c0,-0.89362 0,-1.78727 0,-2.68091c0.37282,-0.18641 0.7558,-0.3779 1.14896,-0.57448c5.36182,-0.25532 10.72362,-0.25532 16.08544,0c1.17588,0.98396 1.43123,2.19675 0.76598,3.63838c-1.92171,0.27349 -3.83665,0.52882 -5.7448,0.76597c-0.31895,5.35726 -0.51044,10.71907 -0.57448,16.08544c-0.19084,1.34053 -0.95682,1.97881 -2.29792,1.91493c-0.86574,0.02332 -1.63172,-0.23197 -2.29792,-0.76597c-0.12765,-5.61715 -0.25533,-11.23426 -0.38298,-16.85142c-1.93117,-0.51324 -3.90993,-0.83242 -5.9363,-0.95747c-0.20843,-0.27468 -0.46375,-0.46617 -0.76597,-0.57448z" fill="#262626" fill-rule="evenodd" stroke="none" stroke-width="1" stroke-linecap="butt" opacity="0.909"/><path d="M108.64336,134.66626c1.41016,-0.06331 2.81419,0.00054 4.21285,0.1915c0.97048,0.19774 1.80004,0.64456 2.48942,1.34045c0.78627,-1.45213 1.99881,-1.89892 3.63837,-1.34045c0.31903,0.31914 0.63844,0.63833 0.95746,0.95747c0.25545,4.59584 0.25545,9.19168 0,13.78752c-0.17809,0.54798 -0.4975,0.99481 -0.95746,1.34045c-1.48944,0.39367 -2.76632,0.07453 -3.82987,-0.95747c-7.27789,3.3817 -11.61843,1.08378 -13.02154,-6.89376c0.52178,-4.1178 2.69205,-6.92636 6.51077,-8.42571zM110.17531,138.87911c4.22396,-0.04982 5.81987,1.9928 4.78733,6.12779c-1.11794,2.11593 -2.84137,2.81806 -5.17032,2.10643c-0.95747,-0.44683 -1.65948,-1.14896 -2.10643,-2.10643c-0.87168,-2.82407 -0.04174,-4.86665 2.48942,-6.12779z" fill="#262626" fill-rule="evenodd" stroke="none" stroke-width="1" stroke-linecap="butt" opacity="0.912"/><path d="M128.55867,134.66626c5.41276,-0.90852 8.28515,1.3894 8.6172,6.89376c0.28341,3.20498 0.21983,6.39657 -0.1915,9.57467c-1.50782,0.11241 -2.97581,-0.01528 -4.40435,-0.38298c-0.30294,-3.69888 -0.5584,-7.40111 -0.76597,-11.10662c-1.75293,-1.55159 -3.28488,-1.29626 -4.59584,0.76597c-0.33014,0.6078 -0.58558,1.24609 -0.76597,1.91494c-0.12753,2.80856 -0.25545,5.61715 -0.38299,8.42571c-1.40441,0.51064 -2.80845,0.51064 -4.21286,0c-0.41554,-2.59336 -0.60702,-5.21046 -0.57447,-7.85123c-0.04021,-2.5189 0.15127,-5.00832 0.57447,-7.46824c0.66563,-0.24017 1.36765,-0.36781 2.10643,-0.38298c0.96168,-0.08119 1.79162,0.1741 2.48942,0.76597c0.71848,-0.42461 1.42049,-0.80761 2.10643,-1.14897z" fill="#262626" fill-rule="evenodd" stroke="none" stroke-width="1" stroke-linecap="butt" opacity="0.907"/><path d="M156.5167,134.66626c3.65982,-0.91377 6.21282,0.29904 7.65974,3.63837c-0.1915,0.95747 -0.76597,1.53195 -1.72344,1.72344c-1.36381,-0.58608 -2.70427,-1.22437 -4.02136,-1.91493c-1.49824,0.78631 -1.49824,1.61613 0,2.48941c1.61391,0.8708 3.27339,1.63677 4.97883,2.29792c1.64531,1.72907 1.96472,3.70785 0.95746,5.93629c-0.74223,0.99803 -1.69969,1.70015 -2.8724,2.10643c-1.91493,0.25534 -3.82987,0.25534 -5.7448,0c-2.33852,-0.79727 -3.42353,-2.39306 -3.25539,-4.78734c1.80846,-1.40931 3.40399,-1.09017 4.78734,0.95747c1.29948,0.44714 2.32052,0.12799 3.0639,-0.95747c-1.96242,-1.18983 -4.00489,-2.27494 -6.12779,-3.25538c-2.12213,-2.51887 -1.9946,-4.94443 0.38299,-7.27675c0.69512,-0.28985 1.33317,-0.60903 1.91493,-0.95747z" fill="#262626" fill-rule="evenodd" stroke="none" stroke-width="1" stroke-linecap="butt" opacity="0.883"/><path d="M195.19835,134.66626c5.03665,-1.08592 8.80257,0.57368 11.29811,4.97883c1.37416,4.81867 -0.09383,8.45704 -4.40434,10.91513c-5.63641,2.05917 -9.78531,0.46337 -12.44707,-4.78734c-1.17692,-5.30624 0.67406,-9.00846 5.55331,-11.10662zM197.49627,138.49613c4.24043,0.69956 5.58088,2.99748 4.02136,6.89376c-1.43352,1.4398 -3.15696,1.88663 -5.17032,1.34045c-3.31858,-3.25937 -2.93559,-6.00412 1.14897,-8.23421z" fill="#262626" fill-rule="evenodd" stroke="none" stroke-width="1" stroke-linecap="butt" opacity="0.905"/><path d="M208.98587,134.66626c1.64416,-0.36935 2.85708,0.14128 3.63837,1.53195c1.30062,-1.41808 2.89652,-1.86491 4.78733,-1.34045c0.59477,1.36547 0.46725,2.64207 -0.38298,3.82987c-1.57101,0.27919 -2.91147,0.98136 -4.02137,2.10643c-0.23592,3.19312 -0.49099,6.38465 -0.76597,9.57467c-0.58406,0.46729 -1.28645,0.72262 -2.10643,0.76597c-0.63844,-0.06384 -1.27649,-0.12765 -1.91493,-0.1915c-0.23975,-0.2874 -0.43124,-0.60658 -0.57448,-0.95747c-0.25545,-4.59584 -0.25545,-9.19168 0,-13.78752c0.26426,-0.70861 0.71082,-1.21928 1.34045,-1.53195z" fill="#262626" fill-rule="evenodd" stroke="none" stroke-width="1" stroke-linecap="butt" opacity="0.91"/><path d="M230.81611,134.66626c1.54535,-0.22967 2.88581,0.15331 4.02137,1.14897c4.17609,-2.03653 7.87841,-1.39825 11.10661,1.91493c2.1229,4.32599 1.67595,8.34735 -1.34045,12.06408c-3.1087,1.69537 -6.23656,1.75921 -9.38317,0.19149c-0.49367,2.23174 -0.74913,4.52965 -0.76598,6.89375c-0.14324,0.35089 -0.33473,0.67007 -0.57448,0.95747c-1.37531,0.30202 -2.71576,0.23818 -4.02135,-0.19149c-0.25545,-7.27675 -0.25545,-14.55349 0,-21.83024c0.26732,-0.45598 0.58635,-0.83898 0.95746,-1.14897zM236.9439,138.87911c3.14202,-0.55992 5.05696,0.71672 5.7448,3.82987c-0.4121,3.93231 -2.45456,5.27277 -6.12779,4.02136c-1.7828,-1.43417 -2.35728,-3.28526 -1.72344,-5.55331c0.52087,-0.96612 1.22287,-1.7321 2.10643,-2.29792z" fill="#262626" fill-rule="evenodd" stroke="none" stroke-width="1" stroke-linecap="butt" opacity="0.925"/><path d="M259.9231,134.66626c2.4626,-0.34312 4.69695,0.16756 6.70227,1.53195c0.78627,-1.45213 1.99881,-1.89892 3.63837,-1.34045c0.19149,0.1915 0.38299,0.38298 0.57448,0.57448c0.62273,4.68672 0.75027,9.41021 0.38299,14.17051c-0.17809,0.54798 -0.4975,0.99481 -0.95747,1.34045c-1.02143,0.25534 -2.04246,0.25534 -3.06389,0c-0.2095,-0.35411 -0.46456,-0.67325 -0.76597,-0.95747c-2.93444,1.82118 -5.99833,2.01267 -9.19168,0.57448c-4.73065,-4.38343 -4.9861,-8.97928 -0.76597,-13.78753c1.17347,-0.71189 2.32243,-1.41403 3.44688,-2.10643zM261.45504,138.87911c4.9076,0.36422 6.24805,2.78979 4.02137,7.27675c-3.82986,2.3222 -6.19175,1.30094 -7.08526,-3.06389c0.19187,-2.05591 1.2133,-3.46022 3.0639,-4.21286z" fill="#262626" fill-rule="evenodd" stroke="none" stroke-width="1" stroke-linecap="butt" opacity="0.912"/><path d="M272.56166,134.66626c1.28301,-0.0632 2.55949,0.00065 3.82986,0.1915c0.31903,0.31914 0.63844,0.63833 0.95747,0.95747c0.97623,2.61327 2.06162,5.16653 3.25539,7.65973c1.14781,-2.99542 2.55183,-5.86782 4.21285,-8.6172c1.98387,-0.67379 3.38828,-0.09932 4.21285,1.72343c-0.29452,1.15283 -0.61392,2.30179 -0.95746,3.44689c-3.03211,5.87203 -5.90451,11.80832 -8.61721,17.80888c-1.16965,0.31458 -2.3186,0.25078 -3.44688,-0.19149c-0.16507,-0.3039 -0.29298,-0.62305 -0.38298,-0.95747c0.71121,-2.37961 1.47718,-4.74137 2.29792,-7.08525c-1.84983,-4.21094 -3.70118,-8.42379 -5.55331,-12.63856c-0.25966,-0.80335 -0.19571,-1.56932 0.19149,-2.29792z" fill="#262626" fill-rule="evenodd" stroke="none" stroke-width="1" stroke-linecap="butt" opacity="0.904"/><path d="M291.328,134.66626c0.9027,-0.06254 1.79621,0.0013 2.68091,0.1915c0.45997,0.34564 0.77938,0.79247 0.95747,1.34045c0.25545,4.72349 0.25545,9.44702 0,14.17051c-0.19149,0.1915 -0.38299,0.38298 -0.57448,0.57448c-1.37531,0.30202 -2.71576,0.23819 -4.02136,-0.19149c-0.25545,-4.97883 -0.25545,-9.95766 0,-14.93648c0.26733,-0.45598 0.58635,-0.83898 0.95746,-1.14897z" fill="#262626" fill-rule="evenodd" stroke="none" stroke-width="1" stroke-linecap="butt" opacity="0.908"/><path d="M303.20059,134.66626c4.88921,-1.04027 7.76161,0.87466 8.6172,5.7448c0.3129,3.54059 0.24894,7.05128 -0.19149,10.53214c-1.2765,0.25534 -2.55337,0.25534 -3.82987,0c-0.19149,-0.1915 -0.38299,-0.38298 -0.57448,-0.57448c-0.12754,-3.31923 -0.25545,-6.63843 -0.38298,-9.95766c-0.78895,-1.70621 -2.00187,-2.15304 -3.63837,-1.34045c-0.8847,0.6271 -1.45918,1.45688 -1.72344,2.48942c-0.12754,2.93625 -0.25545,5.87245 -0.38298,8.8087c-0.6978,0.59187 -1.52774,0.84716 -2.48942,0.76597c-0.63844,-0.12765 -1.2765,-0.25534 -1.91494,-0.38298c-0.43928,-4.96137 -0.50325,-9.94019 -0.1915,-14.93648c0.6978,-0.59187 1.52774,-0.84716 2.48942,-0.76597c1.55416,1.07535 2.95819,0.94769 4.21286,-0.38299z" fill="#262626" fill-rule="evenodd" stroke="none" stroke-width="1" stroke-linecap="butt" opacity="0.923"/><path d="M318.52006,134.66626c2.41665,-0.24653 4.71456,0.13647 6.89376,1.14897c1.60969,-1.51712 3.2056,-1.51712 4.78733,0c0.25545,5.36182 0.25545,10.72362 0,16.08543c-0.49023,3.29913 -2.34158,5.40556 -5.5533,6.31929c-2.04247,0.25534 -4.08532,0.25534 -6.12779,0c-1.51318,-0.20535 -2.85364,-0.77984 -4.02137,-1.72344c-0.25583,-2.42377 0.82955,-3.38123 3.25539,-2.87239c2.08958,1.10951 4.13242,1.10951 6.12778,0c1.22364,-0.84031 1.60663,-1.92543 1.14896,-3.25539c-4.98534,2.45211 -8.87877,1.30315 -11.68109,-3.44688c-1.86668,-5.71884 -0.14324,-9.804 5.17032,-12.25558zM320.05201,138.87911c4.30324,-0.22236 6.02668,1.82027 5.17032,6.12779c-1.25504,2.1481 -3.10602,2.85026 -5.55331,2.10643c-3.12517,-2.88696 -2.99763,-5.63171 0.38299,-8.23422z" fill="#262626" fill-rule="evenodd" stroke="none" stroke-width="1" stroke-linecap="butt" opacity="0.913"/><path d="M333.07355,145.38989c3.12709,-0.50738 4.59507,0.76923 4.40434,3.82986c-0.30064,0.68401 -0.7472,1.2585 -1.34045,1.72344c-3.55067,0.91691 -5.01905,-0.42354 -4.40435,-4.02136c0.26426,-0.70861 0.71082,-1.21928 1.34046,-1.53195z" fill="#262626" fill-rule="evenodd" stroke="none" stroke-width="1" stroke-linecap="butt" opacity="0.865"/><path d="M87.19611,156.11351c1.4763,-0.25071 2.56145,0.25997 3.25539,1.53195c0.25534,6.89376 0.25534,13.78752 0,20.68128c-0.63105,0.58521 -1.39702,0.84065 -2.29792,0.76597c-0.9009,0.07468 -1.66687,-0.18077 -2.29792,-0.76597c-0.31902,-7.15266 -0.25518,-14.30161 0.19149,-21.44726c0.47441,-0.16943 0.85739,-0.42476 1.14896,-0.76597z" fill="#262626" fill-rule="evenodd" stroke="none" stroke-width="1" stroke-linecap="butt" opacity="0.898"/><path d="M256.47622,156.11351c1.15585,-0.06304 2.30481,0.00077 3.44688,0.1915c0.1915,0.1915 0.38299,0.38298 0.57449,0.57447c0.25545,7.27675 0.25545,14.5535 0,21.83025c-1.3056,0.42971 -2.64606,0.49367 -4.02137,0.1915c-0.23975,-0.28724 -0.43124,-0.60665 -0.57448,-0.95747c-2.68933,1.64186 -5.56173,1.96089 -8.6172,0.95747c-2.34963,-1.43927 -3.69008,-3.54569 -4.02136,-6.31929c-0.51321,-7.27383 2.86972,-10.52923 10.14915,-9.76616c0.82879,0.35017 1.59475,0.797 2.29792,1.34046c0.26809,-2.7019 0.52355,-5.3828 0.76598,-8.04272zM250.34843,166.83714c4.44686,-0.21485 6.1703,1.828 5.17032,6.12779c-1.11794,2.11601 -2.84138,2.81802 -5.17032,2.10643c-0.95747,-0.44694 -1.65948,-1.14896 -2.10643,-2.10643c-0.75984,-2.61963 -0.05745,-4.6621 2.10643,-6.12779z" fill="#262626" fill-rule="evenodd" stroke="none" stroke-width="1" stroke-linecap="butt" opacity="0.916"/><path d="M361.03158,156.87948c0,0.89362 0,1.78729 0,2.68091c-0.36001,3.78652 -0.80657,7.61646 -1.34046,11.4896c-1.24088,0.58827 -2.38984,0.46073 -3.44688,-0.38298c-0.49061,-4.59017 -0.74606,-9.18602 -0.76597,-13.78753c1.85098,-1.00974 3.70195,-1.00974 5.55331,0z" fill="#262626" fill-rule="evenodd" stroke="none" stroke-width="1" stroke-linecap="butt" opacity="0.907"/><path d="M71.49365,179.85869c-1.14896,0 -2.29792,0 -3.44688,0c-0.44153,-7.24879 -0.50536,-14.52542 -0.1915,-21.83024c0.1915,-0.1915 0.38299,-0.38298 0.57448,-0.57448c3.70222,-0.25534 7.40439,-0.25534 11.10661,0c4.49327,2.17846 5.96142,5.68919 4.40435,10.53213c-0.86414,2.01336 -2.33224,3.35382 -4.40435,4.02136c-2.18999,0.08081 -4.36022,0.2723 -6.51077,0.57448c-0.31722,1.774 -0.50873,3.56101 -0.57449,5.36182c-0.14021,0.74759 -0.45939,1.38565 -0.95746,1.91493zM73.40859,161.09234c3.56595,-0.8407 5.60857,0.49975 6.12779,4.02136c-0.80737,2.7012 -2.59466,3.59472 -5.36181,2.68091c-1.49836,-0.887 -2.26433,-2.22738 -2.29792,-4.02136c0.08974,-1.19059 0.60037,-2.08421 1.53195,-2.6809z" fill="#262626" fill-rule="evenodd" stroke="none" stroke-width="1" stroke-linecap="butt" opacity="0.93"/><path d="M97.15376,162.62429c4.16582,-0.91782 7.5489,0.23113 10.14915,3.44688c1.1076,1.86859 1.17155,3.71956 0.19149,5.5533c-3.86338,0.36268 -7.69324,0.74568 -11.48959,1.14896c1.25861,2.31707 3.17354,3.08304 5.74479,2.29792c1.16002,-0.28035 2.30899,-0.59937 3.44688,-0.95747c2.44652,0.76406 2.82951,2.10451 1.14897,4.02136c-4.16008,1.87817 -8.24524,1.75025 -12.25557,-0.38299c-4.05809,-4.47482 -4.05809,-8.94313 0,-13.40454c0.9955,-0.68747 2.01677,-1.26193 3.06389,-1.72343zM99.45168,166.45415c1.56856,-0.05247 2.84517,0.52201 3.82987,1.72344c-2.17027,0.25545 -4.3405,0.25545 -6.51077,0c0.80128,-0.77976 1.6949,-1.35424 2.6809,-1.72344z" fill="#262626" fill-rule="evenodd" stroke="none" stroke-width="1" stroke-linecap="butt" opacity="0.903"/><path d="M115.53712,162.62429c2.33813,-0.32515 4.44455,0.18547 6.31927,1.53195c0.78627,-1.45213 1.99881,-1.89893 3.63838,-1.34046c0.30946,0.11781 0.56491,0.30931 0.76597,0.57449c0.27498,3.81914 0.53005,7.64901 0.76597,11.4896c0.22481,3.16002 -1.1796,4.50048 -4.21285,4.02137c-0.31903,-0.31903 -0.63844,-0.63844 -0.95747,-0.95747c-7.35296,3.44037 -11.75731,1.14245 -13.21303,-6.89376c0.49903,-4.32506 2.79695,-7.13366 6.89376,-8.4257zM116.68608,166.83714c4.66362,0.26388 6.13162,2.5618 4.40435,6.89377c-1.30062,1.4182 -2.89652,1.86476 -4.78733,1.34045c-2.14818,-1.25504 -2.85019,-3.10603 -2.10643,-5.55331c0.64878,-1.09458 1.47872,-1.98808 2.48942,-2.6809z" fill="#262626" fill-rule="evenodd" stroke="none" stroke-width="1" stroke-linecap="butt" opacity="0.91"/><path d="M131.62256,162.62429c2.14664,-0.22669 4.18949,0.09249 6.12779,0.95747c2.0486,1.71742 1.98502,3.18568 -0.1915,4.40434c-1.29756,-0.48907 -2.51048,-1.12751 -3.63837,-1.91493c-1.68744,0.69665 -1.81497,1.52659 -0.38298,2.48942c2.36839,0.78665 4.47481,1.99919 6.31928,3.63837c0.39869,1.89195 0.14324,3.67897 -0.76597,5.36181c-0.34584,0.45997 -0.7924,0.77938 -1.34045,0.95747c-2.87087,0.87206 -5.67969,0.74453 -8.4257,-0.38298c-2.59703,-1.954 -2.53308,-3.67744 0.19149,-5.17032c1.31441,0.93142 2.71844,1.6974 4.21285,2.29792c0.90998,-0.01647 1.48446,-0.46303 1.72344,-1.34046c-2.00378,-1.01415 -4.04625,-2.03518 -6.12778,-3.06389c-2.39137,-3.61463 -1.6254,-6.35934 2.29792,-8.23422z" fill="#262626" fill-rule="evenodd" stroke="none" stroke-width="1" stroke-linecap="butt" opacity="0.884"/><path d="M146.55904,162.62429c6.0014,-1.09116 9.70373,1.2706 11.10661,7.08525c-0.15013,1.18419 -0.78857,1.95017 -1.91493,2.29792c-3.63608,0.01034 -7.21088,0.26541 -10.72363,0.76597c0.5358,1.17347 1.42931,1.93945 2.68091,2.29792c2.60086,0.06549 5.15423,-0.18958 7.65973,-0.76597c1.53195,1.2765 1.53195,2.55337 0,3.82987c-3.82987,1.7874 -7.65973,1.7874 -11.48959,0c-3.43922,-2.95092 -4.39668,-6.58929 -2.8724,-10.91513c1.35616,-2.19069 3.20713,-3.72262 5.5533,-4.59583zM148.47398,166.45415c1.54727,-0.11873 2.82376,0.39218 3.82986,1.53194c-2.1589,0.44541 -4.32928,0.50938 -6.51077,0.1915c0.80121,-0.77976 1.6951,-1.35424 2.68091,-1.72344z" fill="#262626" fill-rule="evenodd" stroke="none" stroke-width="1" stroke-linecap="butt" opacity="0.911"/><path d="M213.58171,162.62429c1.41016,-0.06331 2.81419,0.00053 4.21286,0.19149c0.7993,0.3034 1.50169,0.7502 2.10643,1.34046c0.78627,-1.45213 1.99881,-1.89893 3.63837,-1.34046c0.30946,0.11781 0.56491,0.30931 0.76597,0.57449c0.2995,3.68816 0.55456,7.39049 0.76597,11.10661c0.41439,3.35075 -0.99003,4.81874 -4.21286,4.40435c-0.31903,-0.31903 -0.63844,-0.63844 -0.95746,-0.95747c-3.18491,1.97736 -6.44031,2.04094 -9.76616,0.1915c-3.04972,-2.95053 -3.87966,-6.46099 -2.48941,-10.53214c1.48177,-2.31638 3.46028,-3.97598 5.93629,-4.97883zM214.73067,166.83714c4.28026,-0.00038 5.87616,2.04209 4.78733,6.12779c-1.11794,2.11601 -2.84137,2.81802 -5.17032,2.10643c-2.04898,-1.29105 -2.75099,-3.14203 -2.10643,-5.55331c0.64878,-1.09458 1.47871,-1.98808 2.48942,-2.6809z" fill="#262626" fill-rule="evenodd" stroke="none" stroke-width="1" stroke-linecap="butt" opacity="0.917"/><path d="M233.11403,162.62429c4.88423,-1.04647 7.75663,0.86846 8.6172,5.7448c0.3083,3.46526 0.24473,6.91215 -0.19149,10.34064c-1.40441,0.51052 -2.80844,0.51052 -4.21285,0c-0.3083,-3.30096 -0.4998,-6.61993 -0.57448,-9.95766c-0.58252,-1.98349 -1.79506,-2.55781 -3.63837,-1.72344c-0.71925,0.59095 -1.29372,1.29296 -1.72343,2.10643c-0.02298,3.23087 -0.27844,6.4223 -0.76598,9.57467c-1.32322,0.49444 -2.66367,0.49444 -4.02136,0c-0.26579,-3.43922 -0.52125,-6.8861 -0.76598,-10.34064c0.26694,-1.52084 0.45844,-3.05259 0.57448,-4.59584c0.65032,-0.47223 1.41629,-0.72752 2.29792,-0.76597c0.91112,0.05886 1.74106,0.31417 2.48941,0.76597c0.63002,-0.45817 1.26807,-0.84115 1.91493,-1.14896z" fill="#262626" fill-rule="evenodd" stroke="none" stroke-width="1" stroke-linecap="butt" opacity="0.92"/><path d="M311.6263,162.62429c1.15585,-0.06304 2.30481,0.00077 3.44688,0.19149c0.31903,0.31914 0.63844,0.63833 0.95747,0.95747c0.34584,-0.46012 0.7924,-0.7793 1.34045,-0.95747c2.75176,-0.65813 5.17721,-0.08364 7.27675,1.72344c0.74721,-0.81285 1.6411,-1.38733 2.6809,-1.72344c2.59857,-0.58019 4.96044,-0.13335 7.08526,1.34046c0.59823,0.94111 0.98121,1.96242 1.14896,3.06389c0.50324,3.69123 0.63117,7.39318 0.38299,11.10662c-0.63116,0.58521 -1.39714,0.84065 -2.29792,0.76597c-0.90078,0.07468 -1.66676,-0.18077 -2.29792,-0.76597c-0.12754,-3.44688 -0.25545,-6.89377 -0.38299,-10.34064c-1.53195,-2.04259 -3.0639,-2.04259 -4.59584,0c-0.36843,3.56599 -0.6235,7.14079 -0.76597,10.72363c-1.3056,0.42971 -2.64605,0.49367 -4.02136,0.1915c-0.31328,-3.22552 -0.50477,-6.48091 -0.57448,-9.76617c-0.71657,-2.33928 -2.12098,-2.97772 -4.21286,-1.91494c-0.29911,0.47069 -0.4906,0.98121 -0.57448,1.53195c-0.19187,3.34769 -0.51129,6.66704 -0.95747,9.95766c-1.17692,0.4278 -2.38984,0.49176 -3.63837,0.1915c-0.26464,-0.40865 -0.45614,-0.8556 -0.57448,-1.34046c-0.25545,-4.4683 -0.25545,-8.93623 0,-13.40453c0.15702,-0.53645 0.34851,-1.04709 0.57448,-1.53195z" fill="#262626" fill-rule="evenodd" stroke="none" stroke-width="1" stroke-linecap="butt" opacity="0.907"/><path d="M343.03121,162.62429c3.87429,-0.80994 7.12968,0.21133 9.76616,3.0639c1.01798,1.69816 1.33701,3.48556 0.95747,5.36181c-0.44618,0.41516 -0.9567,0.73419 -1.53195,0.95747c-3.44459,0.1915 -6.89146,0.25507 -10.34064,0.1915c-0.01187,1.5691 0.7541,2.52656 2.29792,2.8724c2.32052,0.32362 4.55487,0.00459 6.70227,-0.95747c1.73723,0.3332 2.37567,1.35462 1.91493,3.06389c-1.86591,1.79238 -4.10026,2.55835 -6.70227,2.29792c-7.66471,-0.63538 -10.53712,-4.72031 -8.61721,-12.25557c1.35616,-2.19069 3.20713,-3.72262 5.55331,-4.59583zM344.94614,166.45415c1.54726,-0.11873 2.82376,0.39218 3.82987,1.53194c-2.15889,0.44541 -4.32928,0.50938 -6.51077,0.1915c0.8012,-0.77976 1.69509,-1.35424 2.6809,-1.72344z" fill="#262626" fill-rule="evenodd" stroke="none" stroke-width="1" stroke-linecap="butt" opacity="0.91"/><path d="M361.03158,174.87986c0,0.89351 0,1.7874 0,2.68091c-1.17041,1.43275 -2.70236,1.87932 -4.59584,1.34046c-2.13017,-1.97736 -2.00263,-3.76438 0.38299,-5.36182c1.75561,-0.51205 3.16003,-0.06549 4.21285,1.34045z" fill="#262626" fill-rule="evenodd" stroke="none" stroke-width="1" stroke-linecap="butt" opacity="0.874"/><text transform="translate(168.76529,177.81447) scale(0.59704,0.59704)" font-size="40" xml:space="preserve" fill="#262626" fill-rule="nonzero" stroke="none" stroke-width="1" stroke-linecap="butt" stroke-linejoin="miter" stroke-miterlimit="10" stroke-dasharray="" stroke-dashoffset="0" font-family="Sans Serif" font-weight="normal" text-anchor="start" style="mix-blend-mode: normal"><tspan x="0" dy="0">❤　　　⭐</tspan></text><path d="M95.40463,54.94217c6,0 12,0 18,0c9.5154,2.51227 15.8487,8.51227 19,18c-0.0288,1.5293 -0.6955,2.696 -2,3.5c-4.7936,2.3801 -9.7936,3.7135 -15,4c-2.8962,-7.4481 -8.2295,-10.1148 -16,-8c-1.4308,0.4652 -2.5975,1.2986 -3.5,2.5c-1.0813,4.9176 -1.5813,9.9176 -1.5,15c-2.0846,16.0207 4.082,20.6873 18.5,14c0.49,-1.2932 0.6567,-2.6266 0.5,-4c-4,0 -8,0 -12,0c0,-5 0,-10 0,-15c10.5821,-0.3199 21.0821,0.0134 31.5,1c1.1256,8.8417 0.4589,17.5083 -2,26c-4.3898,6.2419 -10.2231,10.2419 -17.5,12c-6,0 -12,0 -18,0c-10.1503,-2.1512 -16.81696,-8.1512 -20,-18c0,-11 0,-22 0,-33c3.2084,-9.87653 9.87507,-15.87653 20,-18z" fill="#c48700" fill-rule="evenodd" stroke="#ffffff" stroke-width="2.5" stroke-linecap="butt" opacity="0.947"/><path d="M158.40463,54.94217c6,0 12,0 18,0c16.445,5.34491 23.112,16.8449 20,34.5c3.112,17.6551 -3.555,29.1551 -20,34.5c-6,0 -12,0 -18,0c-16.4506,-5.3572 -23.1173,-16.8572 -20,-34.5c-3.1173,-17.6428 3.5494,-29.14277 20,-34.5zM163.40463,71.94217c6.615,-1.4446 11.115,0.8887 13.5,7c0.901,8.0788 0.568,16.0788 -1,24c-4.6146,4.4729 -9.7812,5.1396 -15.5,2c-1.0836,-1.1651 -1.9169,-2.4984 -2.5,-4c-0.6667,-7.6667 -0.6667,-15.3333 0,-23c1.0209,-2.8501 2.8542,-4.8501 5.5,-6z" fill="#c48700" fill-rule="evenodd" stroke="#ffffff" stroke-width="2.5" stroke-linecap="butt" opacity="0.946"/><path d="M220.40463,56.94217c6.258,-0.30969 12.424,0.02364 18.5,1c8.608,21.3264 16.108,42.9931 22.5,65c-6.342,0.1662 -12.675,-0.0005 -19,-0.5c-1.735,-2.6368 -3.068,-5.4701 -4,-8.5c-6.307,-1.1639 -12.641,-1.3306 -19,-0.5c-1.139,3.0833 -2.472,6.0833 -4,9c-6.325,0.4995 -12.658,0.6662 -19,0.5c7.019,-22.3917 15.019,-44.3917 24,-66zM228.40463,76.94217c1.122,6.9715 3.122,13.8049 6,20.5c-3.667,0.6667 -7.333,0.6667 -11,0c3.127,-6.4641 4.793,-13.2975 5,-20.5z" fill="#c48700" fill-rule="evenodd" stroke="#ffffff" stroke-width="2.5" stroke-linecap="butt" opacity="0.947"/><path d="M311.40463,107.94217c0,4.6667 0,9.3333 0,14c-15.167,1.3258 -30.333,1.3258 -45.5,0c-0.667,-21.3333 -0.667,-42.6667 0,-64c6.076,-0.97636 12.242,-1.30969 18.5,-1c0,16.3333 0,32.6667 0,49c8.34,-0.1664 16.673,0.0003 25,0.5c0.544,0.7172 1.211,1.2172 2,1.5z" fill="#c48700" fill-rule="evenodd" stroke="#ffffff" stroke-width="2.5" stroke-linecap="butt" opacity="0.96"/><path d="M95.40463,54.94217c6,0 12,0 18,0c9.5154,2.51227 15.8487,8.51227 19,18c-0.0288,1.5293 -0.6955,2.696 -2,3.5c-4.7936,2.3801 -9.7936,3.7135 -15,4c-2.8962,-7.4481 -8.2295,-10.1148 -16,-8c-1.4308,0.4652 -2.5975,1.2986 -3.5,2.5c-1.0813,4.9176 -1.5813,9.9176 -1.5,15c-2.0846,16.0207 4.082,20.6873 18.5,14c0.49,-1.2932 0.6567,-2.6266 0.5,-4c-4,0 -8,0 -12,0c0,-5 0,-10 0,-15c10.5821,-0.3199 21.0821,0.0134 31.5,1c1.1256,8.8417 0.4589,17.5083 -2,26c-4.3898,6.2419 -10.2231,10.2419 -17.5,12c-6,0 -12,0 -18,0c-10.1503,-2.1512 -16.81696,-8.1512 -20,-18c0,-11 0,-22 0,-33c3.2084,-9.87653 9.87507,-15.87653 20,-18z" fill="#c48700" fill-rule="evenodd" stroke="#ffffff" stroke-width="2.5" stroke-linecap="butt" opacity="0.947"/><path d="M158.40463,54.94217c6,0 12,0 18,0c16.445,5.34491 23.112,16.8449 20,34.5c3.112,17.6551 -3.555,29.1551 -20,34.5c-6,0 -12,0 -18,0c-16.4506,-5.3572 -23.1173,-16.8572 -20,-34.5c-3.1173,-17.6428 3.5494,-29.14277 20,-34.5zM163.40463,71.94217c6.615,-1.4446 11.115,0.8887 13.5,7c0.901,8.0788 0.568,16.0788 -1,24c-4.6146,4.4729 -9.7812,5.1396 -15.5,2c-1.0836,-1.1651 -1.9169,-2.4984 -2.5,-4c-0.6667,-7.6667 -0.6667,-15.3333 0,-23c1.0209,-2.8501 2.8542,-4.8501 5.5,-6z" fill="#c48700" fill-rule="evenodd" stroke="#ffffff" stroke-width="2.5" stroke-linecap="butt" opacity="0.946"/><path d="M220.40463,56.94217c6.258,-0.30969 12.424,0.02364 18.5,1c8.608,21.3264 16.108,42.9931 22.5,65c-6.342,0.1662 -12.675,-0.0005 -19,-0.5c-1.735,-2.6368 -3.068,-5.4701 -4,-8.5c-6.307,-1.1639 -12.641,-1.3306 -19,-0.5c-1.139,3.0833 -2.472,6.0833 -4,9c-6.325,0.4995 -12.658,0.6662 -19,0.5c7.019,-22.3917 15.019,-44.3917 24,-66zM228.40463,76.94217c1.122,6.9715 3.122,13.8049 6,20.5c-3.667,0.6667 -7.333,0.6667 -11,0c3.127,-6.4641 4.793,-13.2975 5,-20.5z" fill="#c48700" fill-rule="evenodd" stroke="#ffffff" stroke-width="2.5" stroke-linecap="butt" opacity="0.947"/><path d="M311.40463,107.94217c0,4.6667 0,9.3333 0,14c-15.167,1.3258 -30.333,1.3258 -45.5,0c-0.667,-21.3333 -0.667,-42.6667 0,-64c6.076,-0.97636 12.242,-1.30969 18.5,-1c0,16.3333 0,32.6667 0,49c8.34,-0.1664 16.673,0.0003 25,0.5c0.544,0.7172 1.211,1.2172 2,1.5z" fill="#c48700" fill-rule="evenodd" stroke="#ffffff" stroke-width="2.5" stroke-linecap="butt" opacity="0.96"/><path d="M95.40463,54.94217c6,0 12,0 18,0c9.5154,2.51227 15.8487,8.51227 19,18c-0.0288,1.5293 -0.6955,2.696 -2,3.5c-4.7936,2.3801 -9.7936,3.7135 -15,4c-2.8962,-7.4481 -8.2295,-10.1148 -16,-8c-1.4308,0.4652 -2.5975,1.2986 -3.5,2.5c-1.0813,4.9176 -1.5813,9.9176 -1.5,15c-2.0846,16.0207 4.082,20.6873 18.5,14c0.49,-1.2932 0.6567,-2.6266 0.5,-4c-4,0 -8,0 -12,0c0,-5 0,-10 0,-15c10.5821,-0.3199 21.0821,0.0134 31.5,1c1.1256,8.8417 0.4589,17.5083 -2,26c-4.3898,6.2419 -10.2231,10.2419 -17.5,12c-6,0 -12,0 -18,0c-10.1503,-2.1512 -16.81696,-8.1512 -20,-18c0,-11 0,-22 0,-33c3.2084,-9.87653 9.87507,-15.87653 20,-18z" fill="#c48700" fill-rule="evenodd" stroke="#ffffff" stroke-width="2.5" stroke-linecap="butt" opacity="0.947"/><path d="M158.40463,54.94217c6,0 12,0 18,0c16.445,5.34491 23.112,16.8449 20,34.5c3.112,17.6551 -3.555,29.1551 -20,34.5c-6,0 -12,0 -18,0c-16.4506,-5.3572 -23.1173,-16.8572 -20,-34.5c-3.1173,-17.6428 3.5494,-29.14277 20,-34.5zM163.40463,71.94217c6.615,-1.4446 11.115,0.8887 13.5,7c0.901,8.0788 0.568,16.0788 -1,24c-4.6146,4.4729 -9.7812,5.1396 -15.5,2c-1.0836,-1.1651 -1.9169,-2.4984 -2.5,-4c-0.6667,-7.6667 -0.6667,-15.3333 0,-23c1.0209,-2.8501 2.8542,-4.8501 5.5,-6z" fill="#c48700" fill-rule="evenodd" stroke="#ffffff" stroke-width="2.5" stroke-linecap="butt" opacity="0.946"/><path d="M220.40463,56.94217c6.258,-0.30969 12.424,0.02364 18.5,1c8.608,21.3264 16.108,42.9931 22.5,65c-6.342,0.1662 -12.675,-0.0005 -19,-0.5c-1.735,-2.6368 -3.068,-5.4701 -4,-8.5c-6.307,-1.1639 -12.641,-1.3306 -19,-0.5c-1.139,3.0833 -2.472,6.0833 -4,9c-6.325,0.4995 -12.658,0.6662 -19,0.5c7.019,-22.3917 15.019,-44.3917 24,-66zM228.40463,76.94217c1.122,6.9715 3.122,13.8049 6,20.5c-3.667,0.6667 -7.333,0.6667 -11,0c3.127,-6.4641 4.793,-13.2975 5,-20.5z" fill="#c48700" fill-rule="evenodd" stroke="#ffffff" stroke-width="2.5" stroke-linecap="butt" opacity="0.947"/><path d="M311.40463,107.94217c0,4.6667 0,9.3333 0,14c-15.167,1.3258 -30.333,1.3258 -45.5,0c-0.667,-21.3333 -0.667,-42.6667 0,-64c6.076,-0.97636 12.242,-1.30969 18.5,-1c0,16.3333 0,32.6667 0,49c8.34,-0.1664 16.673,0.0003 25,0.5c0.544,0.7172 1.211,1.2172 2,1.5z" fill="#c48700" fill-rule="evenodd" stroke="#ffffff" stroke-width="2.5" stroke-linecap="butt" opacity="0.96"/><path d="M95.40463,54.94217c6,0 12,0 18,0c9.5154,2.51227 15.8487,8.51227 19,18c-0.0288,1.5293 -0.6955,2.696 -2,3.5c-4.7936,2.3801 -9.7936,3.7135 -15,4c-2.8962,-7.4481 -8.2295,-10.1148 -16,-8c-1.4308,0.4652 -2.5975,1.2986 -3.5,2.5c-1.0813,4.9176 -1.5813,9.9176 -1.5,15c-2.0846,16.0207 4.082,20.6873 18.5,14c0.49,-1.2932 0.6567,-2.6266 0.5,-4c-4,0 -8,0 -12,0c0,-5 0,-10 0,-15c10.5821,-0.3199 21.0821,0.0134 31.5,1c1.1256,8.8417 0.4589,17.5083 -2,26c-4.3898,6.2419 -10.2231,10.2419 -17.5,12c-6,0 -12,0 -18,0c-10.1503,-2.1512 -16.81696,-8.1512 -20,-18c0,-11 0,-22 0,-33c3.2084,-9.87653 9.87507,-15.87653 20,-18z" fill="#c48700" fill-rule="evenodd" stroke="none" stroke-width="1" stroke-linecap="butt" opacity="0.947"/><path d="M158.40463,54.94217c6,0 12,0 18,0c16.445,5.34491 23.112,16.8449 20,34.5c3.112,17.6551 -3.555,29.1551 -20,34.5c-6,0 -12,0 -18,0c-16.4506,-5.3572 -23.1173,-16.8572 -20,-34.5c-3.1173,-17.6428 3.5494,-29.14277 20,-34.5zM163.40463,71.94217c6.615,-1.4446 11.115,0.8887 13.5,7c0.901,8.0788 0.568,16.0788 -1,24c-4.6146,4.4729 -9.7812,5.1396 -15.5,2c-1.0836,-1.1651 -1.9169,-2.4984 -2.5,-4c-0.6667,-7.6667 -0.6667,-15.3333 0,-23c1.0209,-2.8501 2.8542,-4.8501 5.5,-6z" fill="#c48700" fill-rule="evenodd" stroke="none" stroke-width="1" stroke-linecap="butt" opacity="0.946"/><path d="M220.40463,56.94217c6.258,-0.30969 12.424,0.02364 18.5,1c8.608,21.3264 16.108,42.9931 22.5,65c-6.342,0.1662 -12.675,-0.0005 -19,-0.5c-1.735,-2.6368 -3.068,-5.4701 -4,-8.5c-6.307,-1.1639 -12.641,-1.3306 -19,-0.5c-1.139,3.0833 -2.472,6.0833 -4,9c-6.325,0.4995 -12.658,0.6662 -19,0.5c7.019,-22.3917 15.019,-44.3917 24,-66zM228.40463,76.94217c1.122,6.9715 3.122,13.8049 6,20.5c-3.667,0.6667 -7.333,0.6667 -11,0c3.127,-6.4641 4.793,-13.2975 5,-20.5z" fill="#c48700" fill-rule="evenodd" stroke="none" stroke-width="1" stroke-linecap="butt" opacity="0.947"/><path d="M311.40463,107.94217c0,4.6667 0,9.3333 0,14c-15.167,1.3258 -30.333,1.3258 -45.5,0c-0.667,-21.3333 -0.667,-42.6667 0,-64c6.076,-0.97636 12.242,-1.30969 18.5,-1c0,16.3333 0,32.6667 0,49c8.34,-0.1664 16.673,0.0003 25,0.5c0.544,0.7172 1.211,1.2172 2,1.5z" fill="#c48700" fill-rule="evenodd" stroke="none" stroke-width="1" stroke-linecap="butt" opacity="0.96"/><path d="M95.40463,54.94217c6,0 12,0 18,0c9.5154,2.51227 15.8487,8.51227 19,18c-0.0288,1.5293 -0.6955,2.696 -2,3.5c-4.7936,2.3801 -9.7936,3.7135 -15,4c-2.8962,-7.4481 -8.2295,-10.1148 -16,-8c-1.4308,0.4652 -2.5975,1.2986 -3.5,2.5c-1.0813,4.9176 -1.5813,9.9176 -1.5,15c-2.0846,16.0207 4.082,20.6873 18.5,14c0.49,-1.2932 0.6567,-2.6266 0.5,-4c-4,0 -8,0 -12,0c0,-5 0,-10 0,-15c10.5821,-0.3199 21.0821,0.0134 31.5,1c1.1256,8.8417 0.4589,17.5083 -2,26c-4.3898,6.2419 -10.2231,10.2419 -17.5,12c-6,0 -12,0 -18,0c-10.1503,-2.1512 -16.81696,-8.1512 -20,-18c0,-11 0,-22 0,-33c3.2084,-9.87653 9.87507,-15.87653 20,-18z" fill="#c48700" fill-rule="evenodd" stroke="none" stroke-width="1" stroke-linecap="butt" opacity="0.947"/><path d="M158.40463,54.94217c6,0 12,0 18,0c16.445,5.34491 23.112,16.8449 20,34.5c3.112,17.6551 -3.555,29.1551 -20,34.5c-6,0 -12,0 -18,0c-16.4506,-5.3572 -23.1173,-16.8572 -20,-34.5c-3.1173,-17.6428 3.5494,-29.14277 20,-34.5zM163.40463,71.94217c6.615,-1.4446 11.115,0.8887 13.5,7c0.901,8.0788 0.568,16.0788 -1,24c-4.6146,4.4729 -9.7812,5.1396 -15.5,2c-1.0836,-1.1651 -1.9169,-2.4984 -2.5,-4c-0.6667,-7.6667 -0.6667,-15.3333 0,-23c1.0209,-2.8501 2.8542,-4.8501 5.5,-6z" fill="#c48700" fill-rule="evenodd" stroke="none" stroke-width="1" stroke-linecap="butt" opacity="0.946"/><path d="M220.40463,56.94217c6.258,-0.30969 12.424,0.02364 18.5,1c8.608,21.3264 16.108,42.9931 22.5,65c-6.342,0.1662 -12.675,-0.0005 -19,-0.5c-1.735,-2.6368 -3.068,-5.4701 -4,-8.5c-6.307,-1.1639 -12.641,-1.3306 -19,-0.5c-1.139,3.0833 -2.472,6.0833 -4,9c-6.325,0.4995 -12.658,0.6662 -19,0.5c7.019,-22.3917 15.019,-44.3917 24,-66zM228.40463,76.94217c1.122,6.9715 3.122,13.8049 6,20.5c-3.667,0.6667 -7.333,0.6667 -11,0c3.127,-6.4641 4.793,-13.2975 5,-20.5z" fill="#c48700" fill-rule="evenodd" stroke="none" stroke-width="1" stroke-linecap="butt" opacity="0.947"/><path d="M311.40463,107.94217c0,4.6667 0,9.3333 0,14c-15.167,1.3258 -30.333,1.3258 -45.5,0c-0.667,-21.3333 -0.667,-42.6667 0,-64c6.076,-0.97636 12.242,-1.30969 18.5,-1c0,16.3333 0,32.6667 0,49c8.34,-0.1664 16.673,0.0003 25,0.5c0.544,0.7172 1.211,1.2172 2,1.5z" fill="#c48700" fill-rule="evenodd" stroke="none" stroke-width="1" stroke-linecap="butt" opacity="0.96"/><path d="M95.40463,54.94217c6,0 12,0 18,0c9.5154,2.51227 15.8487,8.51227 19,18c-0.0288,1.5293 -0.6955,2.696 -2,3.5c-4.7936,2.3801 -9.7936,3.7135 -15,4c-2.8962,-7.4481 -8.2295,-10.1148 -16,-8c-1.4308,0.4652 -2.5975,1.2986 -3.5,2.5c-1.0813,4.9176 -1.5813,9.9176 -1.5,15c-2.0846,16.0207 4.082,20.6873 18.5,14c0.49,-1.2932 0.6567,-2.6266 0.5,-4c-4,0 -8,0 -12,0c0,-5 0,-10 0,-15c10.5821,-0.3199 21.0821,0.0134 31.5,1c1.1256,8.8417 0.4589,17.5083 -2,26c-4.3898,6.2419 -10.2231,10.2419 -17.5,12c-6,0 -12,0 -18,0c-10.1503,-2.1512 -16.81696,-8.1512 -20,-18c0,-11 0,-22 0,-33c3.2084,-9.87653 9.87507,-15.87653 20,-18z" fill="#c48700" fill-rule="evenodd" stroke="none" stroke-width="1" stroke-linecap="butt" opacity="0.947"/><path d="M158.40463,54.94217c6,0 12,0 18,0c16.445,5.34491 23.112,16.8449 20,34.5c3.112,17.6551 -3.555,29.1551 -20,34.5c-6,0 -12,0 -18,0c-16.4506,-5.3572 -23.1173,-16.8572 -20,-34.5c-3.1173,-17.6428 3.5494,-29.14277 20,-34.5zM163.40463,71.94217c6.615,-1.4446 11.115,0.8887 13.5,7c0.901,8.0788 0.568,16.0788 -1,24c-4.6146,4.4729 -9.7812,5.1396 -15.5,2c-1.0836,-1.1651 -1.9169,-2.4984 -2.5,-4c-0.6667,-7.6667 -0.6667,-15.3333 0,-23c1.0209,-2.8501 2.8542,-4.8501 5.5,-6z" fill="#c48700" fill-rule="evenodd" stroke="none" stroke-width="1" stroke-linecap="butt" opacity="0.946"/><path d="M220.40463,56.94217c6.258,-0.30969 12.424,0.02364 18.5,1c8.608,21.3264 16.108,42.9931 22.5,65c-6.342,0.1662 -12.675,-0.0005 -19,-0.5c-1.735,-2.6368 -3.068,-5.4701 -4,-8.5c-6.307,-1.1639 -12.641,-1.3306 -19,-0.5c-1.139,3.0833 -2.472,6.0833 -4,9c-6.325,0.4995 -12.658,0.6662 -19,0.5c7.019,-22.3917 15.019,-44.3917 24,-66zM228.40463,76.94217c1.122,6.9715 3.122,13.8049 6,20.5c-3.667,0.6667 -7.333,0.6667 -11,0c3.127,-6.4641 4.793,-13.2975 5,-20.5z" fill="#c48700" fill-rule="evenodd" stroke="none" stroke-width="1" stroke-linecap="butt" opacity="0.947"/><path d="M311.40463,107.94217c0,4.6667 0,9.3333 0,14c-15.167,1.3258 -30.333,1.3258 -45.5,0c-0.667,-21.3333 -0.667,-42.6667 0,-64c6.076,-0.97636 12.242,-1.30969 18.5,-1c0,16.3333 0,32.6667 0,49c8.34,-0.1664 16.673,0.0003 25,0.5c0.544,0.7172 1.211,1.2172 2,1.5z" fill="#c48700" fill-rule="evenodd" stroke="none" stroke-width="1" stroke-linecap="butt" opacity="0.96"/><path d="" fill="#61b40e" fill-rule="nonzero" stroke="none" stroke-width="1" stroke-linecap="butt" opacity="0.947"/><path d="M95.40463,54.94217c6,0 12,0 18,0c9.5154,2.51227 15.8487,8.51227 19,18c-0.01631,0.86646 -0.2374,1.61652 -0.66324,2.25017c-4.54791,-0.49455 -9.09871,-0.95797 -13.65741,-1.31282c-2.51479,-0.19575 -5.03727,-0.24131 -7.56156,-0.25197c-2.8752,-2.02494 -6.58113,-2.42007 -11.11779,-1.18538c-0.64442,0.20952 -1.23525,0.49373 -1.77251,0.85261c-2.88109,-0.32845 -5.70664,-1.12659 -8.59568,-1.40497c-4.40179,-0.42414 -8.83938,-0.31566 -13.27248,0.0025c3.33273,-9.25294 9.87963,-14.90298 19.64067,-16.95014z" fill="#61b40e" fill-rule="nonzero" stroke="none" stroke-width="1" stroke-linecap="butt" opacity="0.947"/><path d="" fill="#61b40e" fill-rule="nonzero" stroke="none" stroke-width="1" stroke-linecap="butt" opacity="0.946"/><path d="M158.40463,54.94217c6,0 12,0 18,0c12.69105,4.12481 19.55868,11.91535 20.60246,23.37163c-3.18273,0.01155 -6.36911,0.01387 -9.56074,0.01416c-3.59465,0.00032 -7.19505,0.01041 -10.79682,-0.00642c-2.44376,-5.64757 -6.85872,-7.774 -13.2449,-6.37937c-2.6022,1.13096 -4.41846,3.08423 -5.44887,5.85981c-1.89166,-0.11576 -3.7816,-0.25657 -5.6692,-0.42778c-4.7267,-0.42873 -9.44839,-0.94966 -14.17067,-1.47602c1.74669,-10.13474 8.50961,-17.12007 20.28875,-20.95601z" fill="#61b40e" fill-rule="nonzero" stroke="none" stroke-width="1" stroke-linecap="butt" opacity="0.946"/><path d="" fill="#61b40e" fill-rule="nonzero" stroke="none" stroke-width="1" stroke-linecap="butt" opacity="0.947"/><path d="M220.40463,56.94217c6.258,-0.30969 12.424,0.02364 18.5,1c2.52649,6.2594 4.95754,12.54813 7.29313,18.86616c-1.68392,0.01952 -3.36617,0.03338 -5.04575,0.03478c-4.21625,0.33335 -8.42595,0.59194 -12.63281,0.79253c-0.03916,-0.23101 -0.07736,-0.46215 -0.11458,-0.69347c-0.00672,0.23375 -0.01497,0.46711 -0.02477,0.70009c-5.47938,0.25959 -10.954,0.42109 -16.43206,0.52148c2.71504,-7.11534 5.53398,-14.1892 8.45682,-21.22157z" fill="#61b40e" fill-rule="nonzero" stroke="none" stroke-width="1" stroke-linecap="butt" opacity="0.947"/><path d="" fill="#61b40e" fill-rule="nonzero" stroke="none" stroke-width="1" stroke-linecap="butt" opacity="0.96"/><path d="M265.90463,57.94217c6.076,-0.97636 12.242,-1.30969 18.5,-1c0,6.9174 0,13.83481 0,20.75223c-4.94322,-0.27681 -9.87625,-0.62785 -14.75505,-0.84404c-1.38474,-0.06136 -2.77151,-0.1051 -4.15974,-0.13502c0.08087,-6.25772 0.21913,-12.51545 0.41478,-18.77317z" fill="#61b40e" fill-rule="nonzero" stroke="none" stroke-width="1" stroke-linecap="butt" opacity="0.96"/><path d="" fill="#61b40e" fill-rule="nonzero" stroke="none" stroke-width="1" stroke-linecap="butt" opacity="0.947"/><path d="M95.40463,54.94217c6,0 12,0 18,0c9.5154,2.51227 15.8487,8.51227 19,18c-0.01631,0.86646 -0.2374,1.61652 -0.66324,2.25017c-4.54791,-0.49455 -9.09871,-0.95797 -13.65741,-1.31282c-2.51479,-0.19575 -5.03727,-0.24131 -7.56156,-0.25197c-2.8752,-2.02494 -6.58113,-2.42007 -11.11779,-1.18538c-0.64442,0.20952 -1.23525,0.49373 -1.77251,0.85261c-2.88109,-0.32845 -5.70664,-1.12659 -8.59568,-1.40497c-4.40179,-0.42414 -8.83938,-0.31566 -13.27248,0.0025c3.33273,-9.25294 9.87963,-14.90298 19.64067,-16.95014z" fill="#61b40e" fill-rule="nonzero" stroke="none" stroke-width="1" stroke-linecap="butt" opacity="0.947"/><path d="" fill="#61b40e" fill-rule="nonzero" stroke="none" stroke-width="1" stroke-linecap="butt" opacity="0.946"/><path d="M158.40463,54.94217c6,0 12,0 18,0c12.69105,4.12481 19.55868,11.91535 20.60246,23.37163c-3.18273,0.01155 -6.36911,0.01387 -9.56074,0.01416c-3.59465,0.00032 -7.19505,0.01041 -10.79682,-0.00642c-2.44376,-5.64757 -6.85872,-7.774 -13.2449,-6.37937c-2.6022,1.13096 -4.41846,3.08423 -5.44887,5.85981c-1.89166,-0.11576 -3.7816,-0.25657 -5.6692,-0.42778c-4.7267,-0.42873 -9.44839,-0.94966 -14.17067,-1.47602c1.74669,-10.13474 8.50961,-17.12007 20.28875,-20.95601z" fill="#61b40e" fill-rule="nonzero" stroke="none" stroke-width="1" stroke-linecap="butt" opacity="0.946"/><path d="" fill="#61b40e" fill-rule="nonzero" stroke="none" stroke-width="1" stroke-linecap="butt" opacity="0.947"/><path d="M220.40463,56.94217c6.258,-0.30969 12.424,0.02364 18.5,1c2.52649,6.2594 4.95754,12.54813 7.29313,18.86616c-1.68392,0.01952 -3.36617,0.03338 -5.04575,0.03478c-4.21625,0.33335 -8.42595,0.59194 -12.63281,0.79253c-0.03916,-0.23101 -0.07736,-0.46215 -0.11458,-0.69347c-0.00672,0.23375 -0.01497,0.46711 -0.02477,0.70009c-5.47938,0.25959 -10.954,0.42109 -16.43206,0.52148c2.71504,-7.11534 5.53398,-14.1892 8.45682,-21.22157z" fill="#61b40e" fill-rule="nonzero" stroke="none" stroke-width="1" stroke-linecap="butt" opacity="0.947"/><path d="" fill="#61b40e" fill-rule="nonzero" stroke="none" stroke-width="1" stroke-linecap="butt" opacity="0.96"/><path d="M265.90463,57.94217c6.076,-0.97636 12.242,-1.30969 18.5,-1c0,6.9174 0,13.83481 0,20.75223c-4.94322,-0.27681 -9.87625,-0.62785 -14.75505,-0.84404c-1.38474,-0.06136 -2.77151,-0.1051 -4.15974,-0.13502c0.08087,-6.25772 0.21913,-12.51545 0.41478,-18.77317z" fill="#61b40e" fill-rule="nonzero" stroke="none" stroke-width="1" stroke-linecap="butt" opacity="0.96"/><path d="" fill="#61b40e" fill-rule="nonzero" stroke="none" stroke-width="1" stroke-linecap="butt" opacity="0.947"/><path d="M95.40463,54.94217c6,0 12,0 18,0c9.5154,2.51227 15.8487,8.51227 19,18c-0.01631,0.86646 -0.2374,1.61652 -0.66324,2.25017c-4.54791,-0.49455 -9.09871,-0.95797 -13.65741,-1.31282c-2.51479,-0.19575 -5.03727,-0.24131 -7.56156,-0.25197c-2.8752,-2.02494 -6.58113,-2.42007 -11.11779,-1.18538c-0.64442,0.20952 -1.23525,0.49373 -1.77251,0.85261c-2.88109,-0.32845 -5.70664,-1.12659 -8.59568,-1.40497c-4.40179,-0.42414 -8.83938,-0.31566 -13.27248,0.0025c3.33273,-9.25294 9.87963,-14.90298 19.64067,-16.95014z" fill="#61b40e" fill-rule="nonzero" stroke="none" stroke-width="1" stroke-linecap="butt" opacity="0.947"/><path d="" fill="#61b40e" fill-rule="nonzero" stroke="none" stroke-width="1" stroke-linecap="butt" opacity="0.946"/><path d="M158.40463,54.94217c6,0 12,0 18,0c12.69105,4.12481 19.55868,11.91535 20.60246,23.37163c-3.18273,0.01155 -6.36911,0.01387 -9.56074,0.01416c-3.59465,0.00032 -7.19505,0.01041 -10.79682,-0.00642c-2.44376,-5.64757 -6.85872,-7.774 -13.2449,-6.37937c-2.6022,1.13096 -4.41846,3.08423 -5.44887,5.85981c-1.89166,-0.11576 -3.7816,-0.25657 -5.6692,-0.42778c-4.7267,-0.42873 -9.44839,-0.94966 -14.17067,-1.47602c1.74669,-10.13474 8.50961,-17.12007 20.28875,-20.95601z" fill="#61b40e" fill-rule="nonzero" stroke="none" stroke-width="1" stroke-linecap="butt" opacity="0.946"/><path d="" fill="#61b40e" fill-rule="nonzero" stroke="none" stroke-width="1" stroke-linecap="butt" opacity="0.947"/><path d="M220.40463,56.94217c6.258,-0.30969 12.424,0.02364 18.5,1c2.52649,6.2594 4.95754,12.54813 7.29313,18.86616c-1.68392,0.01952 -3.36617,0.03338 -5.04575,0.03478c-4.21625,0.33335 -8.42595,0.59194 -12.63281,0.79253c-0.03916,-0.23101 -0.07736,-0.46215 -0.11458,-0.69347c-0.00672,0.23375 -0.01497,0.46711 -0.02477,0.70009c-5.47938,0.25959 -10.954,0.42109 -16.43206,0.52148c2.71504,-7.11534 5.53398,-14.1892 8.45682,-21.22157z" fill="#61b40e" fill-rule="nonzero" stroke="none" stroke-width="1" stroke-linecap="butt" opacity="0.947"/><path d="" fill="#61b40e" fill-rule="nonzero" stroke="none" stroke-width="1" stroke-linecap="butt" opacity="0.96"/><path d="M265.90463,57.94217c6.076,-0.97636 12.242,-1.30969 18.5,-1c0,6.9174 0,13.83481 0,20.75223c-4.94322,-0.27681 -9.87625,-0.62785 -14.75505,-0.84404c-1.38474,-0.06136 -2.77151,-0.1051 -4.15974,-0.13502c0.08087,-6.25772 0.21913,-12.51545 0.41478,-18.77317z" fill="#61b40e" fill-rule="nonzero" stroke="none" stroke-width="1" stroke-linecap="butt" opacity="0.96"/><path d="" fill="#7ae212" fill-rule="nonzero" stroke="none" stroke-width="1" stroke-linecap="butt" opacity="0.947"/><path d="" fill="#7ae212" fill-rule="nonzero" stroke="none" stroke-width="1" stroke-linecap="butt" opacity="0.947"/><path d="" fill="#7ae212" fill-rule="nonzero" stroke="none" stroke-width="1" stroke-linecap="butt" opacity="0.947"/><path d="M95.40463,54.94217c6,0 12,0 18,0c5.98553,1.58031 10.71195,4.54067 14.17928,8.88108c-2.3286,-0.18822 -4.66058,-0.45709 -6.99897,-0.83937c-12.50703,-1.13731 -25.3771,-2.2995 -38.04994,-1.6967c3.37658,-3.13875 7.66646,-5.25375 12.86964,-6.345z" fill="#7ae212" fill-rule="nonzero" stroke="none" stroke-width="1" stroke-linecap="butt" opacity="0.947"/><path d="" fill="#7ae212" fill-rule="nonzero" stroke="none" stroke-width="1" stroke-linecap="butt" opacity="0.946"/><path d="" fill="#7ae212" fill-rule="nonzero" stroke="none" stroke-width="1" stroke-linecap="butt" opacity="0.946"/><path d="" fill="#7ae212" fill-rule="nonzero" stroke="none" stroke-width="1" stroke-linecap="butt" opacity="0.946"/><path d="M158.40463,54.94217c6,0 12,0 18,0c7.33556,2.38418 12.72553,5.99307 16.16985,10.82667c-1.34671,-0.13746 -2.69511,-0.25969 -4.04584,-0.36076c-7.62692,-0.57071 -15.38752,0.59377 -23.00758,0.00216c-2.28687,-0.17755 -4.52018,-0.86544 -6.81104,-0.98059c-5.13212,-0.25796 -10.21638,-0.20822 -15.28406,-0.18828c3.44724,-4.07015 8.44013,-7.16988 14.97867,-9.29919z" fill="#7ae212" fill-rule="nonzero" stroke="none" stroke-width="1" stroke-linecap="butt" opacity="0.946"/><path d="" fill="#7ae212" fill-rule="nonzero" stroke="none" stroke-width="1" stroke-linecap="butt" opacity="0.947"/><path d="" fill="#7ae212" fill-rule="nonzero" stroke="none" stroke-width="1" stroke-linecap="butt" opacity="0.947"/><path d="" fill="#7ae212" fill-rule="nonzero" stroke="none" stroke-width="1" stroke-linecap="butt" opacity="0.947"/><path d="" fill="#7ae212" fill-rule="nonzero" stroke="none" stroke-width="1" stroke-linecap="butt" opacity="0.947"/><path d="M220.40463,56.94217c6.258,-0.30969 12.424,0.02364 18.5,1c1.43125,3.54594 2.83187,7.10128 4.20186,10.66603c-7.17936,0.43961 -14.33646,0.55675 -21.68412,0.27445c-1.91197,-0.07346 -3.81796,-0.20093 -5.71981,-0.36577c1.53628,-3.87064 3.10364,-7.72888 4.70207,-11.57471z" fill="#7ae212" fill-rule="nonzero" stroke="none" stroke-width="1" stroke-linecap="butt" opacity="0.947"/><path d="" fill="#7ae212" fill-rule="nonzero" stroke="none" stroke-width="1" stroke-linecap="butt" opacity="0.96"/><path d="" fill="#7ae212" fill-rule="nonzero" stroke="none" stroke-width="1" stroke-linecap="butt" opacity="0.96"/><path d="M265.90463,57.94217c6.076,-0.97636 12.242,-1.30969 18.5,-1c0,3.11984 0,6.23968 0,9.35952c-6.27851,-0.09992 -12.49697,0.11283 -18.73837,0.4877c0.06671,-2.94908 0.14617,-5.89815 0.23837,-8.84722z" fill="#7ae212" fill-rule="nonzero" stroke="none" stroke-width="1" stroke-linecap="butt" opacity="0.96"/><path d="" fill="#7ae212" fill-rule="nonzero" stroke="none" stroke-width="1" stroke-linecap="butt" opacity="0.947"/><path d="" fill="#7ae212" fill-rule="nonzero" stroke="none" stroke-width="1" stroke-linecap="butt" opacity="0.947"/><path d="" fill="#7ae212" fill-rule="nonzero" stroke="none" stroke-width="1" stroke-linecap="butt" opacity="0.947"/><path d="M95.40463,54.94217c6,0 12,0 18,0c5.98553,1.58031 10.71195,4.54067 14.17928,8.88108c-2.3286,-0.18822 -4.66058,-0.45709 -6.99897,-0.83937c-12.50703,-1.13731 -25.3771,-2.2995 -38.04994,-1.6967c3.37658,-3.13875 7.66646,-5.25375 12.86964,-6.345z" fill="#7ae212" fill-rule="nonzero" stroke="none" stroke-width="1" stroke-linecap="butt" opacity="0.947"/><path d="" fill="#7ae212" fill-rule="nonzero" stroke="none" stroke-width="1" stroke-linecap="butt" opacity="0.946"/><path d="" fill="#7ae212" fill-rule="nonzero" stroke="none" stroke-width="1" stroke-linecap="butt" opacity="0.946"/><path d="" fill="#7ae212" fill-rule="nonzero" stroke="none" stroke-width="1" stroke-linecap="butt" opacity="0.946"/><path d="M158.40463,54.94217c6,0 12,0 18,0c7.33556,2.38418 12.72553,5.99307 16.16985,10.82667c-1.34671,-0.13746 -2.69511,-0.25969 -4.04584,-0.36076c-7.62692,-0.57071 -15.38752,0.59377 -23.00758,0.00216c-2.28687,-0.17755 -4.52018,-0.86544 -6.81104,-0.98059c-5.13212,-0.25796 -10.21638,-0.20822 -15.28406,-0.18828c3.44724,-4.07015 8.44013,-7.16988 14.97867,-9.29919z" fill="#7ae212" fill-rule="nonzero" stroke="none" stroke-width="1" stroke-linecap="butt" opacity="0.946"/><path d="" fill="#7ae212" fill-rule="nonzero" stroke="none" stroke-width="1" stroke-linecap="butt" opacity="0.947"/><path d="" fill="#7ae212" fill-rule="nonzero" stroke="none" stroke-width="1" stroke-linecap="butt" opacity="0.947"/><path d="" fill="#7ae212" fill-rule="nonzero" stroke="none" stroke-width="1" stroke-linecap="butt" opacity="0.947"/><path d="" fill="#7ae212" fill-rule="nonzero" stroke="none" stroke-width="1" stroke-linecap="butt" opacity="0.947"/><path d="M220.40463,56.94217c6.258,-0.30969 12.424,0.02364 18.5,1c1.43125,3.54594 2.83187,7.10128 4.20186,10.66603c-7.17936,0.43961 -14.33646,0.55675 -21.68412,0.27445c-1.91197,-0.07346 -3.81796,-0.20093 -5.71981,-0.36577c1.53628,-3.87064 3.10364,-7.72888 4.70207,-11.57471z" fill="#7ae212" fill-rule="nonzero" stroke="none" stroke-width="1" stroke-linecap="butt" opacity="0.947"/><path d="" fill="#7ae212" fill-rule="nonzero" stroke="none" stroke-width="1" stroke-linecap="butt" opacity="0.96"/><path d="" fill="#7ae212" fill-rule="nonzero" stroke="none" stroke-width="1" stroke-linecap="butt" opacity="0.96"/><path d="M265.90463,57.94217c6.076,-0.97636 12.242,-1.30969 18.5,-1c0,3.11984 0,6.23968 0,9.35952c-6.27851,-0.09992 -12.49697,0.11283 -18.73837,0.4877c0.06671,-2.94908 0.14617,-5.89815 0.23837,-8.84722z" fill="#7ae212" fill-rule="nonzero" stroke="none" stroke-width="1" stroke-linecap="butt" opacity="0.96"/><path d="" fill="#7ae212" fill-rule="nonzero" stroke="none" stroke-width="1" stroke-linecap="butt" opacity="0.947"/><path d="" fill="#7ae212" fill-rule="nonzero" stroke="none" stroke-width="1" stroke-linecap="butt" opacity="0.947"/><path d="" fill="#7ae212" fill-rule="nonzero" stroke="none" stroke-width="1" stroke-linecap="butt" opacity="0.947"/><path d="M95.40463,54.94217c6,0 12,0 18,0c5.98553,1.58031 10.71195,4.54067 14.17928,8.88108c-2.3286,-0.18822 -4.66058,-0.45709 -6.99897,-0.83937c-12.50703,-1.13731 -25.3771,-2.2995 -38.04994,-1.6967c3.37658,-3.13875 7.66646,-5.25375 12.86964,-6.345z" fill="#7ae212" fill-rule="nonzero" stroke="none" stroke-width="1" stroke-linecap="butt" opacity="0.947"/><path d="" fill="#7ae212" fill-rule="nonzero" stroke="none" stroke-width="1" stroke-linecap="butt" opacity="0.946"/><path d="" fill="#7ae212" fill-rule="nonzero" stroke="none" stroke-width="1" stroke-linecap="butt" opacity="0.946"/><path d="" fill="#7ae212" fill-rule="nonzero" stroke="none" stroke-width="1" stroke-linecap="butt" opacity="0.946"/><path d="M158.40463,54.94217c6,0 12,0 18,0c7.33556,2.38418 12.72553,5.99307 16.16985,10.82667c-1.34671,-0.13746 -2.69511,-0.25969 -4.04584,-0.36076c-7.62692,-0.57071 -15.38752,0.59377 -23.00758,0.00216c-2.28687,-0.17755 -4.52018,-0.86544 -6.81104,-0.98059c-5.13212,-0.25796 -10.21638,-0.20822 -15.28406,-0.18828c3.44724,-4.07015 8.44013,-7.16988 14.97867,-9.29919z" fill="#7ae212" fill-rule="nonzero" stroke="none" stroke-width="1" stroke-linecap="butt" opacity="0.946"/><path d="" fill="#7ae212" fill-rule="nonzero" stroke="none" stroke-width="1" stroke-linecap="butt" opacity="0.947"/><path d="" fill="#7ae212" fill-rule="nonzero" stroke="none" stroke-width="1" stroke-linecap="butt" opacity="0.947"/><path d="" fill="#7ae212" fill-rule="nonzero" stroke="none" stroke-width="1" stroke-linecap="butt" opacity="0.947"/><path d="" fill="#7ae212" fill-rule="nonzero" stroke="none" stroke-width="1" stroke-linecap="butt" opacity="0.947"/><path d="M220.40463,56.94217c6.258,-0.30969 12.424,0.02364 18.5,1c1.43125,3.54594 2.83187,7.10128 4.20186,10.66603c-7.17936,0.43961 -14.33646,0.55675 -21.68412,0.27445c-1.91197,-0.07346 -3.81796,-0.20093 -5.71981,-0.36577c1.53628,-3.87064 3.10364,-7.72888 4.70207,-11.57471z" fill="#7ae212" fill-rule="nonzero" stroke="none" stroke-width="1" stroke-linecap="butt" opacity="0.947"/><path d="" fill="#7ae212" fill-rule="nonzero" stroke="none" stroke-width="1" stroke-linecap="butt" opacity="0.96"/><path d="" fill="#7ae212" fill-rule="nonzero" stroke="none" stroke-width="1" stroke-linecap="butt" opacity="0.96"/><path d="M265.90463,57.94217c6.076,-0.97636 12.242,-1.30969 18.5,-1c0,3.11984 0,6.23968 0,9.35952c-6.27851,-0.09992 -12.49697,0.11283 -18.73837,0.4877c0.06671,-2.94908 0.14617,-5.89815 0.23837,-8.84722z" fill="#7ae212" fill-rule="nonzero" stroke="none" stroke-width="1" stroke-linecap="butt" opacity="0.96"/></g></g></svg>