<svg version="1.1" xmlns="http://www.w3.org/2000/svg" xmlns:xlink="http://www.w3.org/1999/xlink" width="247.66533" height="120.66805" viewBox="0,0,247.66533,120.66805"><g transform="translate(-113.51569,-119.66598)"><g data-paper-data="{&quot;isPaintingLayer&quot;:true}" fill-rule="evenodd" stroke-linecap="butt" stroke-linejoin="miter" stroke-miterlimit="10" stroke-dasharray="" stroke-dashoffset="0" style="mix-blend-mode: normal"><path d="M122.569,124.4111c8.17926,0 16.35857,0 24.53783,0c4.52992,27.59157 6.86684,27.59157 7.0108,0c9.34786,0 18.69537,0 28.04323,0c0,37.39109 0,74.78184 0,112.17293c-9.34786,0 -18.69537,0 -28.04323,0c-4.52992,-27.59137 -6.86684,-27.59137 -7.0108,0c-8.17926,0 -16.35857,0 -24.53782,0c0,-37.39109 0,-74.78183 0,-112.17292z" fill="#ffcbcb" stroke="#ffffff" stroke-width="7.5" opacity="0.88"/><path d="M185.16532,123.41598c16.35867,0 32.71698,0 49.07565,0c-0.50021,6.17795 0.66812,12.02032 3.50539,17.52703c-7.86158,3.41507 -16.04071,4.58352 -24.53781,3.5054c0,8.17926 0,16.35867 0,24.53783c5.84246,0 11.68456,0 17.52702,0c0,8.17916 0,16.35868 0,24.53784c-5.84246,0 -11.68456,0 -17.52702,0c0,7.0108 0,14.02162 0,21.03243c8.26154,-0.57244 16.44104,0.01192 24.53781,1.7527c-3.17625,5.95743 -4.34458,12.38388 -3.50539,19.27972c-16.35867,0 -32.71698,0 -49.07565,0c0,-37.39109 0,-74.78183 0,-112.17291z" fill="#ffcbcb" stroke="#ffffff" stroke-width="7.5" opacity="0.857"/><path d="M238.24732,123.91351c9.34786,0 18.69536,0 28.04322,0c3.5054,37.39109 7.0108,37.39109 10.51622,0c9.34787,0 18.69536,0 28.04323,0c-2.80676,5.40467 -3.97513,11.24703 -3.5054,17.52703c-4.9002,11.85555 -9.57397,24.12454 -14.02162,36.80675c6.6508,19.00244 12.49327,38.28217 17.52703,57.83917c-9.34787,0 -18.69536,0 -28.04323,0c-3.5054,-37.39109 -7.0108,-37.39109 -10.51622,0c-9.34785,0 -18.69536,0 -28.04322,0c5.73379,-18.96844 10.40789,-38.24815 14.02161,-57.83914c-2.92455,-18.68103 -7.59866,-36.79227 -14.02161,-54.33377z" fill="#ffcbcb" stroke="#ffffff" stroke-width="7.5" opacity="0.855"/><path d="M308.35537,123.91354c15.18995,0 30.38029,0 45.57025,0c-0.60153,3.47603 0.56718,5.813 3.5054,7.01083c0,4.67387 0,9.34775 0,14.0216c-4.67376,0 -9.34785,0 -14.02161,0c0,30.38029 0,60.76022 0,91.1405c-8.17916,0 -16.35868,0 -24.53782,0c0,-30.38028 0,-60.76022 0,-91.14049c-6.7118,0.99722 -12.5539,-0.17123 -17.52702,-3.5054c3.63686,-5.01388 5.97357,-10.85621 7.01081,-17.52702z" fill="#ffcbcb" stroke="#ffffff" stroke-width="7.5" opacity="0.928"/><path d="M122.569,124.4111c8.17926,0 16.35857,0 24.53783,0c4.52992,27.59157 6.86684,27.59157 7.0108,0c9.34786,0 18.69537,0 28.04323,0c0,37.39109 0,74.78184 0,112.17293c-9.34786,0 -18.69537,0 -28.04323,0c-4.52992,-27.59137 -6.86684,-27.59137 -7.0108,0c-8.17926,0 -16.35857,0 -24.53782,0c0,-37.39109 0,-74.78183 0,-112.17292z" fill="#ffcbcb" stroke="#ffffff" stroke-width="7.5" opacity="0.88"/><path d="M185.16532,123.41598c16.35867,0 32.71698,0 49.07565,0c-0.50021,6.17795 0.66812,12.02032 3.50539,17.52703c-7.86158,3.41507 -16.04071,4.58352 -24.53781,3.5054c0,8.17926 0,16.35867 0,24.53783c5.84246,0 11.68456,0 17.52702,0c0,8.17916 0,16.35868 0,24.53784c-5.84246,0 -11.68456,0 -17.52702,0c0,7.0108 0,14.02162 0,21.03243c8.26154,-0.57244 16.44104,0.01192 24.53781,1.7527c-3.17625,5.95743 -4.34458,12.38388 -3.50539,19.27972c-16.35867,0 -32.71698,0 -49.07565,0c0,-37.39109 0,-74.78183 0,-112.17291z" fill="#ffcbcb" stroke="#ffffff" stroke-width="7.5" opacity="0.857"/><path d="M238.24732,123.91351c9.34786,0 18.69536,0 28.04322,0c3.5054,37.39109 7.0108,37.39109 10.51622,0c9.34787,0 18.69536,0 28.04323,0c-2.80676,5.40467 -3.97513,11.24703 -3.5054,17.52703c-4.9002,11.85555 -9.57397,24.12454 -14.02162,36.80675c6.6508,19.00244 12.49327,38.28217 17.52703,57.83917c-9.34787,0 -18.69536,0 -28.04323,0c-3.5054,-37.39109 -7.0108,-37.39109 -10.51622,0c-9.34785,0 -18.69536,0 -28.04322,0c5.73379,-18.96844 10.40789,-38.24815 14.02161,-57.83914c-2.92455,-18.68103 -7.59866,-36.79227 -14.02161,-54.33377z" fill="#ffcbcb" stroke="#ffffff" stroke-width="7.5" opacity="0.855"/><path d="M308.35537,123.91354c15.18995,0 30.38029,0 45.57025,0c-0.60153,3.47603 0.56718,5.813 3.5054,7.01083c0,4.67387 0,9.34775 0,14.0216c-4.67376,0 -9.34785,0 -14.02161,0c0,30.38029 0,60.76022 0,91.1405c-8.17916,0 -16.35868,0 -24.53782,0c0,-30.38028 0,-60.76022 0,-91.14049c-6.7118,0.99722 -12.5539,-0.17123 -17.52702,-3.5054c3.63686,-5.01388 5.97357,-10.85621 7.01081,-17.52702z" fill="#ffcbcb" stroke="#ffffff" stroke-width="7.5" opacity="0.928"/><path d="M122.569,124.4111c8.17926,0 16.35857,0 24.53783,0c4.52992,27.59157 6.86684,27.59157 7.0108,0c9.34786,0 18.69537,0 28.04323,0c0,37.39109 0,74.78184 0,112.17293c-9.34786,0 -18.69537,0 -28.04323,0c-4.52992,-27.59137 -6.86684,-27.59137 -7.0108,0c-8.17926,0 -16.35857,0 -24.53782,0c0,-37.39109 0,-74.78183 0,-112.17292z" fill="#ffcbcb" stroke="#ffffff" stroke-width="7.5" opacity="0.88"/><path d="M185.16532,123.41598c16.35867,0 32.71698,0 49.07565,0c-0.50021,6.17795 0.66812,12.02032 3.50539,17.52703c-7.86158,3.41507 -16.04071,4.58352 -24.53781,3.5054c0,8.17926 0,16.35867 0,24.53783c5.84246,0 11.68456,0 17.52702,0c0,8.17916 0,16.35868 0,24.53784c-5.84246,0 -11.68456,0 -17.52702,0c0,7.0108 0,14.02162 0,21.03243c8.26154,-0.57244 16.44104,0.01192 24.53781,1.7527c-3.17625,5.95743 -4.34458,12.38388 -3.50539,19.27972c-16.35867,0 -32.71698,0 -49.07565,0c0,-37.39109 0,-74.78183 0,-112.17291z" fill="#ffcbcb" stroke="#ffffff" stroke-width="7.5" opacity="0.857"/><path d="M238.24732,123.91351c9.34786,0 18.69536,0 28.04322,0c3.5054,37.39109 7.0108,37.39109 10.51622,0c9.34787,0 18.69536,0 28.04323,0c-2.80676,5.40467 -3.97513,11.24703 -3.5054,17.52703c-4.9002,11.85555 -9.57397,24.12454 -14.02162,36.80675c6.6508,19.00244 12.49327,38.28217 17.52703,57.83917c-9.34787,0 -18.69536,0 -28.04323,0c-3.5054,-37.39109 -7.0108,-37.39109 -10.51622,0c-9.34785,0 -18.69536,0 -28.04322,0c5.73379,-18.96844 10.40789,-38.24815 14.02161,-57.83914c-2.92455,-18.68103 -7.59866,-36.79227 -14.02161,-54.33377z" fill="#ffcbcb" stroke="#ffffff" stroke-width="7.5" opacity="0.855"/><path d="M308.35537,123.91354c15.18995,0 30.38029,0 45.57025,0c-0.60153,3.47603 0.56718,5.813 3.5054,7.01083c0,4.67387 0,9.34775 0,14.0216c-4.67376,0 -9.34785,0 -14.02161,0c0,30.38029 0,60.76022 0,91.1405c-8.17916,0 -16.35868,0 -24.53782,0c0,-30.38028 0,-60.76022 0,-91.14049c-6.7118,0.99722 -12.5539,-0.17123 -17.52702,-3.5054c3.63686,-5.01388 5.97357,-10.85621 7.01081,-17.52702z" fill="#ffcbcb" stroke="#ffffff" stroke-width="7.5" opacity="0.928"/><path d="M122.56901,123.91355c8.17926,0 16.35857,0 24.53783,0c4.52992,27.59157 6.86684,27.59157 7.0108,0c9.34786,0 18.69537,0 28.04323,0c0,37.39109 0,74.78183 0,112.17292c-9.34786,0 -18.69537,0 -28.04323,0c-4.52992,-27.59137 -6.86684,-27.59137 -7.0108,0c-8.17926,0 -16.35857,0 -24.53782,0c0,-37.39109 0,-74.78183 0,-112.17292z" fill="#ffc0c0" stroke="none" stroke-width="1" opacity="0.88"/><path d="M185.16533,122.91843c16.35867,0 32.71698,0 49.07565,0c-0.50021,6.17795 0.66812,12.02032 3.50539,17.52703c-7.86158,3.41507 -16.04071,4.58352 -24.53781,3.5054c0,8.17926 0,16.35867 0,24.53783c5.84246,0 11.68456,0 17.52702,0c0,8.17916 0,16.35867 0,24.53783c-5.84246,0 -11.68456,0 -17.52702,0c0,7.0108 0,14.02162 0,21.03243c8.26154,-0.57244 16.44104,0.01192 24.53781,1.7527c-3.17625,5.95743 -4.34458,12.38388 -3.50539,19.27972c-16.35867,0 -32.71698,0 -49.07565,0c0,-37.39109 0,-74.78183 0,-112.17291z" fill="#ffc0c0" stroke="none" stroke-width="1" opacity="0.857"/><path d="M238.24733,123.41596c9.34786,0 18.69536,0 28.04322,0c3.5054,37.39109 7.0108,37.39109 10.51622,0c9.34787,0 18.69536,0 28.04323,0c-2.80676,5.40467 -3.97513,11.24703 -3.5054,17.52703c-4.9002,11.85555 -9.57397,24.12454 -14.02162,36.80675c6.6508,19.00244 12.49327,38.28216 17.52703,57.83916c-9.34787,0 -18.69536,0 -28.04323,0c-3.5054,-37.39109 -7.0108,-37.39109 -10.51622,0c-9.34785,0 -18.69536,0 -28.04322,0c5.73379,-18.96844 10.40789,-38.24815 14.02161,-57.83914c-2.92455,-18.68103 -7.59866,-36.79227 -14.02161,-54.33377z" fill="#ffc0c0" stroke="none" stroke-width="1" opacity="0.855"/><path d="M308.35537,123.41599c15.18995,0 30.38029,0 45.57025,0c-0.60153,3.47603 0.56718,5.813 3.5054,7.01083c0,4.67387 0,9.34774 0,14.0216c-4.67376,0 -9.34785,0 -14.02161,0c0,30.38029 0,60.76022 0,91.1405c-8.17916,0 -16.35868,0 -24.53782,0c0,-30.38028 0,-60.76022 0,-91.14049c-6.7118,0.99722 -12.5539,-0.17123 -17.52702,-3.5054c3.63686,-5.01388 5.97357,-10.85621 7.01081,-17.52702z" fill="#ffc0c0" stroke="none" stroke-width="1" opacity="0.928"/></g></g></svg>