<svg version="1.1" xmlns="http://www.w3.org/2000/svg" xmlns:xlink="http://www.w3.org/1999/xlink" width="345.44432" height="511.98775" viewBox="0,0,345.44432,511.98775"><defs><linearGradient x1="237.5831" y1="295.43403" x2="237.5831" y2="335.12072" gradientUnits="userSpaceOnUse" id="color-1"><stop offset="0" stop-color="#ff6666" stop-opacity="0"/><stop offset="1" stop-color="#ff6666"/></linearGradient></defs><g transform="translate(10.51429,12.90598)"><g data-paper-data="{&quot;isPaintingLayer&quot;:true}" fill-rule="nonzero" stroke="none" stroke-width="0" stroke-linecap="butt" stroke-linejoin="miter" stroke-miterlimit="10" stroke-dasharray="" stroke-dashoffset="0" style="mix-blend-mode: normal"><path d="M293.44787,299.46256l27.35392,-65.50939l14.12824,33.59633c-0.21619,0.29926 -0.42844,0.59892 -0.63642,0.89907c-3.03259,4.3765 -5.51615,14.63939 -2.92276,21.1146c-0.50935,1.40867 -1.04698,2.80574 -1.65309,4.17473c-0.8984,2.02916 -1.78268,4.2221 -3.41067,5.72466z" fill="#ff9696"/><path d="M293.44787,299.46256l27.35392,-65.50939l-0.62603,65.50939z" fill="#ff6666"/><path d="M201.68246,499.08177v-169.39492h77.4079v169.39492z" fill="#ff6666"/><path d="M196.91324,335.12072v-39.68669h81.33971v39.68669z" fill="url(#color-1)"/><path d="M238.63616,10.09606l-27.54861,65.50939l-27.35392,-65.50939z" data-paper-data="{&quot;index&quot;:null}" fill="#ff9696"/><path d="M210.46152,10.09606l0.62603,65.50939l-27.35392,-65.50939z" data-paper-data="{&quot;index&quot;:null}" fill="#ff6666"/><path d="M205.01831,-12.62467l-27.54861,65.50939l-27.35392,-65.50939z" data-paper-data="{&quot;index&quot;:null}" fill="#ff9696"/><path d="M176.84367,-12.62467l0.62603,65.50939l-27.35392,-65.50939z" data-paper-data="{&quot;index&quot;:null}" fill="#ff6666"/><g><path d="M124.99412,49.10612l-27.54861,65.50939l-27.35392,-65.50939z" data-paper-data="{&quot;index&quot;:null}" fill="#ff9696"/><path d="M96.81948,49.10612l0.62603,65.50939l-27.35392,-65.50939z" data-paper-data="{&quot;index&quot;:null}" fill="#ff6666"/></g><g><path d="M44.38824,-12.90598l-27.54861,65.50939l-27.35392,-65.50939z" data-paper-data="{&quot;index&quot;:null}" fill="#ff9696"/><path d="M16.2136,-12.90598l0.62603,65.50939l-27.35392,-65.50939z" data-paper-data="{&quot;index&quot;:null}" fill="#ff6666"/></g><g><path d="M274.3159,95.63883l-27.35392,-65.50939h35.65181c2.2405,9.87719 4.53545,19.74202 6.79698,29.61444z" data-paper-data="{&quot;index&quot;:null}" fill="#ff9696"/><path d="M273.68987,30.12944l0.62603,65.50939l-27.35392,-65.50939z" data-paper-data="{&quot;index&quot;:null}" fill="#ff6666"/></g></g></g></svg>